<svg width="24" height="25" viewBox="0 0 24 25" fill="none" xmlns="http://www.w3.org/2000/svg">
<path d="M13.0167 8.0551C13.0167 7.87545 13.0881 7.70315 13.2151 7.57612C13.3421 7.44909 13.5144 7.37772 13.6941 7.37772H21.8226C22.0023 7.37772 22.1746 7.44909 22.3016 7.57612C22.4286 7.70315 22.5 7.87545 22.5 8.0551C22.5 8.23475 22.4286 8.40704 22.3016 8.53408C22.1746 8.66111 22.0023 8.73248 21.8226 8.73248H13.6941C13.5144 8.73248 13.3421 8.66111 13.2151 8.53408C13.0881 8.40704 13.0167 8.23475 13.0167 8.0551ZM21.8226 11.442H13.6941C13.5144 11.442 13.3421 11.5134 13.2151 11.6404C13.0881 11.7674 13.0167 11.9397 13.0167 12.1194C13.0167 12.299 13.0881 12.4713 13.2151 12.5983C13.3421 12.7254 13.5144 12.7967 13.6941 12.7967H21.8226C22.0023 12.7967 22.1746 12.7254 22.3016 12.5983C22.4286 12.4713 22.5 12.299 22.5 12.1194C22.5 11.9397 22.4286 11.7674 22.3016 11.6404C22.1746 11.5134 22.0023 11.442 21.8226 11.442ZM21.8225 16.1732H15.7261C15.5465 16.1732 15.3742 16.2445 15.2471 16.3716C15.1201 16.4986 15.0487 16.6709 15.0487 16.8505C15.0487 17.0302 15.1201 17.2025 15.2471 17.3295C15.3742 17.4565 15.5465 17.5279 15.7261 17.5279H21.8225C22.0022 17.5279 22.1745 17.4565 22.3015 17.3295C22.4285 17.2025 22.4999 17.0302 22.4999 16.8505C22.4999 16.6709 22.4285 16.4986 22.3015 16.3716C22.1745 16.2445 22.0022 16.1732 21.8225 16.1732ZM13.6728 18.0359C13.695 18.1221 13.6999 18.2118 13.6874 18.2999C13.6749 18.388 13.6451 18.4727 13.5998 18.5493C13.5545 18.6259 13.4946 18.6928 13.4234 18.7462C13.3523 18.7997 13.2713 18.8385 13.1851 18.8607C13.1299 18.8755 13.0729 18.8829 13.0158 18.8827C12.8655 18.8827 12.7195 18.8329 12.6007 18.7409C12.482 18.6489 12.3971 18.5201 12.3596 18.3746C11.838 16.3476 9.79069 14.1515 7.59683 14.1515C5.40297 14.1515 3.3555 16.3467 2.83392 18.3746C2.78901 18.5487 2.6768 18.6977 2.52198 18.789C2.36716 18.8803 2.1824 18.9064 2.00837 18.8615C1.83433 18.8166 1.68526 18.7044 1.59396 18.5496C1.50265 18.3947 1.47659 18.21 1.5215 18.0359C1.99482 16.1977 3.37084 14.0423 5.11678 13.3048C4.44451 12.787 3.95117 12.0717 3.70596 11.2594C3.46074 10.447 3.47595 9.57826 3.74945 8.77497C4.02294 7.97168 4.54101 7.27415 5.23099 6.78019C5.92098 6.28623 6.74826 6.02063 7.59683 6.02063C8.4454 6.02063 9.27269 6.28623 9.96267 6.78019C10.6527 7.27415 11.1707 7.97168 11.4442 8.77497C11.7177 9.57826 11.7329 10.447 11.4877 11.2594C11.2425 12.0717 10.7492 12.787 10.0769 13.3048C11.8237 14.0423 13.1995 16.1977 13.6728 18.0359ZM7.59768 12.7967C8.13357 12.7967 8.65743 12.6378 9.103 12.3401C9.54858 12.0424 9.89587 11.6192 10.1009 11.1241C10.306 10.629 10.3597 10.0842 10.2551 9.55863C10.1506 9.03304 9.89253 8.55025 9.51359 8.17132C9.13466 7.79239 8.65187 7.53433 8.12628 7.42978C7.60068 7.32524 7.05589 7.37889 6.56079 7.58397C6.06569 7.78905 5.64253 8.13633 5.3448 8.58191C5.04708 9.02749 4.88817 9.55134 4.88817 10.0872C4.88817 10.8058 5.17363 11.495 5.68176 12.0031C6.1899 12.5113 6.87907 12.7967 7.59768 12.7967Z" fill="#11162C"/>
</svg>
