<svg width="16" height="16" viewBox="0 0 16 16" fill="none" xmlns="http://www.w3.org/2000/svg">
<path d="M13.7418 4.83452C13.6292 4.89286 13.498 4.90408 13.377 4.86572C13.2561 4.82735 13.1554 4.74255 13.097 4.62994C12.6402 3.72755 11.9488 2.96486 11.0954 2.42199C11.0422 2.38845 10.9962 2.34476 10.9599 2.29342C10.9236 2.24207 10.8977 2.18409 10.8838 2.12276C10.87 2.06144 10.8683 1.99798 10.8789 1.93601C10.8896 1.87403 10.9123 1.81477 10.9458 1.76158C10.9794 1.7084 11.0231 1.66235 11.0744 1.62605C11.1258 1.58975 11.1838 1.56392 11.2451 1.55003C11.3064 1.53615 11.3699 1.53447 11.4318 1.54511C11.4938 1.55575 11.5531 1.57849 11.6063 1.61203C12.6008 2.24884 13.4084 3.13837 13.9464 4.18967C14.0047 4.30232 14.016 4.43352 13.9776 4.55444C13.9392 4.67536 13.8544 4.7761 13.7418 4.83452ZM2.47836 4.88836C2.56603 4.88833 2.65201 4.8642 2.72691 4.81863C2.80181 4.77306 2.86275 4.70779 2.90308 4.62994C3.35986 3.72755 4.05127 2.96486 4.90465 2.42199C5.01205 2.35425 5.08815 2.24661 5.1162 2.12276C5.14424 1.99891 5.12194 1.86899 5.0542 1.76158C4.98645 1.65418 4.87881 1.57808 4.75496 1.55003C4.63111 1.52199 4.50119 1.54429 4.39379 1.61203C3.39922 2.24884 2.59164 3.13837 2.05364 4.18967C2.01585 4.2626 1.99748 4.34403 2.00028 4.42612C2.00308 4.50821 2.02696 4.5882 2.06963 4.65838C2.11229 4.72857 2.1723 4.7866 2.24389 4.82687C2.31547 4.86715 2.39622 4.88833 2.47836 4.88836ZM13.6108 11.106C13.6956 11.2514 13.7405 11.4166 13.7411 11.5849C13.7417 11.7532 13.6979 11.9187 13.6141 12.0646C13.5303 12.2106 13.4095 12.3319 13.2639 12.4163C13.1183 12.5007 12.953 12.5452 12.7847 12.5453H10.3441C10.2342 13.0862 9.94076 13.5725 9.5134 13.9218C9.08605 14.2711 8.55107 14.4619 7.99912 14.4619C7.44718 14.4619 6.9122 14.2711 6.48484 13.9218C6.05748 13.5725 5.76402 13.0862 5.65419 12.5453H3.21354C3.04534 12.545 2.8802 12.5003 2.73475 12.4158C2.5893 12.3314 2.46868 12.21 2.38504 12.0641C2.3014 11.9182 2.25769 11.7528 2.25832 11.5846C2.25895 11.4164 2.3039 11.2513 2.38863 11.106C2.9276 10.1758 3.21354 8.85322 3.21354 7.28115C3.21354 6.01194 3.71774 4.79471 4.61521 3.89724C5.51268 2.99977 6.72991 2.49557 7.99912 2.49557C9.26834 2.49557 10.4856 2.99977 11.383 3.89724C12.2805 4.79471 12.7847 6.01194 12.7847 7.28115C12.7847 8.85262 13.0706 10.1752 13.6108 11.106ZM9.35224 12.5453H6.646C6.74515 12.8249 6.92847 13.0669 7.17078 13.2381C7.41308 13.4093 7.70246 13.5012 7.99912 13.5012C8.29578 13.5012 8.58516 13.4093 8.82747 13.2381C9.06977 13.0669 9.2531 12.8249 9.35224 12.5453ZM12.7847 11.5882C12.1482 10.4953 11.8276 9.04643 11.8276 7.28115C11.8276 6.26578 11.4242 5.292 10.7063 4.57402C9.98828 3.85604 9.01449 3.45269 7.99912 3.45269C6.98375 3.45269 6.00997 3.85604 5.29199 4.57402C4.57401 5.292 4.17066 6.26578 4.17066 7.28115C4.17066 9.04703 3.84883 10.4959 3.21354 11.5882H12.7847Z" fill="#F55800"/>
</svg>
