<svg xmlns="http://www.w3.org/2000/svg" width="24" height="24" viewBox="0 0 24 24" fill="none">
  <path d="M20.25 8.325V6.75C20.25 5.75544 19.8549 4.80161 19.1516 4.09835C18.4484 3.39509 17.4945 3 16.5 3H7.49998C6.50541 3 5.55159 3.39509 4.84832 4.09835C4.14506 4.80161 3.74998 5.75544 3.74998 6.75V8.325C2.90226 8.49714 2.14012 8.95705 1.59269 9.62681C1.04526 10.2966 0.746216 11.135 0.746216 12C0.746216 12.865 1.04526 13.7034 1.59269 14.3732C2.14012 15.043 2.90226 15.5029 3.74998 15.675V18.75C3.74998 19.1478 3.90801 19.5294 4.18931 19.8107C4.47062 20.092 4.85215 20.25 5.24998 20.25H18.75C19.1478 20.25 19.5293 20.092 19.8106 19.8107C20.0919 19.5294 20.25 19.1478 20.25 18.75V15.675C21.0977 15.5029 21.8598 15.043 22.4073 14.3732C22.9547 13.7034 23.2537 12.865 23.2537 12C23.2537 11.135 22.9547 10.2966 22.4073 9.62681C21.8598 8.95705 21.0977 8.49714 20.25 8.325ZM7.49998 4.5H16.5C17.0967 4.5 17.669 4.73705 18.091 5.15901C18.5129 5.58097 18.75 6.15326 18.75 6.75V8.325C17.9035 8.49904 17.1429 8.95959 16.5965 9.62903C16.05 10.2985 15.751 11.1358 15.75 12H8.24998C8.24892 11.1358 7.94996 10.2985 7.40348 9.62903C6.857 8.95959 6.09643 8.49904 5.24998 8.325V6.75C5.24998 6.15326 5.48703 5.58097 5.90899 5.15901C6.33094 4.73705 6.90324 4.5 7.49998 4.5ZM19.5365 14.25H19.5C19.3011 14.25 19.1103 14.329 18.9696 14.4697C18.829 14.6103 18.75 14.8011 18.75 15V18.75H5.24998V15C5.24998 14.8011 5.17096 14.6103 5.0303 14.4697C4.88965 14.329 4.69889 14.25 4.49998 14.25H4.46341C4.02003 14.2428 3.58867 14.1047 3.2235 13.8532C2.85833 13.6016 2.57564 13.2477 2.41093 12.836C2.24623 12.4243 2.20686 11.9731 2.29776 11.5391C2.38866 11.105 2.60578 10.7076 2.92186 10.3965C3.23793 10.0855 3.63887 9.87483 4.0743 9.79093C4.50973 9.70704 4.96024 9.75368 5.36925 9.925C5.77825 10.0963 6.12752 10.3847 6.37317 10.7539C6.61883 11.123 6.74992 11.5566 6.74998 12V15.75C6.74998 15.9489 6.82899 16.1397 6.96965 16.2803C7.1103 16.421 7.30106 16.5 7.49998 16.5C7.69889 16.5 7.88965 16.421 8.0303 16.2803C8.17096 16.1397 8.24998 15.9489 8.24998 15.75V13.5H15.75V15.75C15.75 15.9489 15.829 16.1397 15.9696 16.2803C16.1103 16.421 16.3011 16.5 16.5 16.5C16.6989 16.5 16.8897 16.421 17.0303 16.2803C17.171 16.1397 17.25 15.9489 17.25 15.75V12C17.25 11.5566 17.3811 11.123 17.6268 10.7539C17.8724 10.3847 18.2217 10.0963 18.6307 9.925C19.0397 9.75368 19.4902 9.70704 19.9257 9.79093C20.3611 9.87483 20.762 10.0855 21.0781 10.3965C21.3942 10.7076 21.6113 11.105 21.7022 11.5391C21.7931 11.9731 21.7537 12.4243 21.589 12.836C21.4243 13.2477 21.1416 13.6016 20.7765 13.8532C20.4113 14.1047 19.9799 14.2428 19.5365 14.25Z" fill="#444753"/>
</svg>