<svg width="21" height="20" viewBox="0 0 21 20" fill="none" xmlns="http://www.w3.org/2000/svg">
<path d="M16.825 12.9422C16.7669 13.0003 16.698 13.0464 16.6221 13.0779C16.5463 13.1093 16.4649 13.1255 16.3828 13.1255C16.3007 13.1255 16.2193 13.1093 16.1435 13.0779C16.0676 13.0464 15.9987 13.0003 15.9406 12.9422L10.1328 7.1336L4.32498 12.9422C4.20771 13.0595 4.04865 13.1254 3.88279 13.1254C3.71694 13.1254 3.55788 13.0595 3.44061 12.9422C3.32333 12.8249 3.25745 12.6659 3.25745 12.5C3.25745 12.3342 3.32333 12.1751 3.44061 12.0578L9.69061 5.80782C9.74865 5.74971 9.81758 5.70361 9.89346 5.67215C9.96933 5.6407 10.0507 5.62451 10.1328 5.62451C10.2149 5.62451 10.2963 5.6407 10.3721 5.67215C10.448 5.70361 10.5169 5.74971 10.575 5.80782L16.825 12.0578C16.8831 12.1159 16.9292 12.1848 16.9606 12.2607C16.9921 12.3365 17.0083 12.4179 17.0083 12.5C17.0083 12.5821 16.9921 12.6635 16.9606 12.7393C16.9292 12.8152 16.8831 12.8841 16.825 12.9422Z" fill="#11162C"/>
</svg>
