<svg width="20" height="20" viewBox="0 0 20 20" fill="none" xmlns="http://www.w3.org/2000/svg">
<path d="M2 6.0001L8.53194 10.5725C9.06087 10.9427 9.32534 11.1278 9.61301 11.1995C9.86712 11.2629 10.1329 11.2629 10.387 11.1995C10.6747 11.1278 10.9391 10.9427 11.4681 10.5725L18 6.0001M5.84 16.4001H14.16C15.5041 16.4001 16.1762 16.4001 16.6896 16.1385C17.1412 15.9084 17.5083 15.5413 17.7384 15.0897C18 14.5763 18 13.9042 18 12.5601V7.4401C18 6.09597 18 5.42391 17.7384 4.91052C17.5083 4.45893 17.1412 4.09178 16.6896 3.86168C16.1762 3.6001 15.5041 3.6001 14.16 3.6001H5.84C4.49587 3.6001 3.82381 3.6001 3.31042 3.86168C2.85883 4.09178 2.49168 4.45893 2.26158 4.91052C2 5.42391 2 6.09597 2 7.4401V12.5601C2 13.9042 2 14.5763 2.26158 15.0897C2.49168 15.5413 2.85883 15.9084 3.31042 16.1385C3.82381 16.4001 4.49587 16.4001 5.84 16.4001Z" stroke="#444753" stroke-width="1.5" stroke-linecap="round" stroke-linejoin="round"/>
</svg>
