<svg width="25" height="25" viewBox="0 0 25 25" fill="none" xmlns="http://www.w3.org/2000/svg">
<path d="M20.5944 3.79443H3.67127C3.26325 3.79443 2.87193 3.95652 2.58342 4.24504C2.2949 4.53356 2.13281 4.92487 2.13281 5.3329V19.179C2.13281 19.5871 2.2949 19.9784 2.58342 20.2669C2.87193 20.5554 3.26325 20.7175 3.67127 20.7175H20.5944C21.0024 20.7175 21.3937 20.5554 21.6822 20.2669C21.9707 19.9784 22.1328 19.5871 22.1328 19.179V5.3329C22.1328 4.92487 21.9707 4.53356 21.6822 4.24504C21.3937 3.95652 21.0024 3.79443 20.5944 3.79443ZM20.5944 19.179H3.67127V5.3329H20.5944V19.179ZM16.7482 8.40982C16.7482 9.63389 16.2619 10.8078 15.3964 11.6734C14.5308 12.5389 13.3569 13.0252 12.1328 13.0252C10.9087 13.0252 9.7348 12.5389 8.86924 11.6734C8.00369 10.8078 7.51743 9.63389 7.51743 8.40982C7.51743 8.20581 7.59847 8.01015 7.74273 7.86589C7.88699 7.72163 8.08265 7.64059 8.28666 7.64059C8.49067 7.64059 8.68633 7.72163 8.83059 7.86589C8.97485 8.01015 9.05589 8.20581 9.05589 8.40982C9.05589 9.22587 9.38006 10.0085 9.9571 10.5855C10.5341 11.1626 11.3168 11.4867 12.1328 11.4867C12.9489 11.4867 13.7315 11.1626 14.3085 10.5855C14.8856 10.0085 15.2097 9.22587 15.2097 8.40982C15.2097 8.20581 15.2908 8.01015 15.435 7.86589C15.5793 7.72163 15.775 7.64059 15.979 7.64059C16.183 7.64059 16.3786 7.72163 16.5229 7.86589C16.6672 8.01015 16.7482 8.20581 16.7482 8.40982Z" fill="white"/>
</svg>
