<svg width="24" height="25" viewBox="0 0 24 25" fill="none" xmlns="http://www.w3.org/2000/svg">
<path d="M20.843 7.02401C20.7804 6.94913 20.7022 6.8889 20.6138 6.84758C20.5254 6.80626 20.429 6.78485 20.3314 6.78487H6.88957L6.48211 4.54678C6.42631 4.2396 6.26445 3.96174 6.02478 3.76165C5.7851 3.56157 5.48281 3.45195 5.17059 3.4519H3.66659C3.4898 3.4519 3.32025 3.52213 3.19524 3.64714C3.07023 3.77216 3 3.94171 3 4.1185C3 4.29529 3.07023 4.46484 3.19524 4.58985C3.32025 4.71486 3.4898 4.78509 3.66659 4.78509H5.16643L7.29619 16.4746C7.35893 16.8213 7.51213 17.1453 7.74031 17.4137C7.42538 17.7078 7.19808 18.0835 7.08359 18.4989C6.96911 18.9144 6.97193 19.3534 7.09174 19.7673C7.21154 20.1813 7.44365 20.5539 7.76233 20.844C8.081 21.1341 8.47379 21.3303 8.89714 21.4107C9.32049 21.4912 9.75786 21.4529 10.1607 21.2999C10.5636 21.147 10.9163 20.8855 11.1796 20.5444C11.443 20.2033 11.6067 19.7959 11.6526 19.3674C11.6986 18.939 11.6249 18.5061 11.4399 18.1169H15.2245C15.0753 18.4291 14.9982 18.7708 14.9987 19.1168C14.9987 19.5783 15.1355 20.0293 15.3919 20.413C15.6482 20.7967 16.0126 21.0957 16.4389 21.2723C16.8652 21.4489 17.3343 21.4951 17.7869 21.4051C18.2395 21.3151 18.6552 21.0928 18.9815 20.7666C19.3078 20.4403 19.53 20.0246 19.62 19.572C19.71 19.1194 19.6638 18.6503 19.4872 18.224C19.3106 17.7977 19.0116 17.4333 18.6279 17.177C18.2443 16.9206 17.7932 16.7838 17.3317 16.7838H9.26347C9.10736 16.7837 8.95622 16.7289 8.83638 16.6289C8.71654 16.5288 8.63562 16.3899 8.60771 16.2363L8.34357 14.784H18.0092C18.4775 14.7839 18.9309 14.6195 19.2904 14.3194C19.65 14.0192 19.8927 13.6024 19.9764 13.1417L20.9897 7.57061C21.0068 7.47432 21.0026 7.37544 20.9772 7.28097C20.9519 7.18651 20.9061 7.09878 20.843 7.02401ZM10.3325 19.1168C10.3325 19.3146 10.2739 19.5079 10.164 19.6723C10.0541 19.8368 9.89798 19.9649 9.71527 20.0406C9.53257 20.1163 9.33152 20.1361 9.13756 20.0975C8.9436 20.0589 8.76544 19.9637 8.6256 19.8239C8.48576 19.684 8.39053 19.5059 8.35195 19.3119C8.31337 19.1179 8.33317 18.9169 8.40885 18.7342C8.48453 18.5515 8.61269 18.3953 8.77712 18.2855C8.94155 18.1756 9.13487 18.1169 9.33263 18.1169C9.59782 18.1169 9.85214 18.2223 10.0397 18.4098C10.2272 18.5973 10.3325 18.8516 10.3325 19.1168ZM18.3316 19.1168C18.3316 19.3146 18.273 19.5079 18.1631 19.6723C18.0533 19.8368 17.8971 19.9649 17.7144 20.0406C17.5317 20.1163 17.3306 20.1361 17.1367 20.0975C16.9427 20.0589 16.7646 19.9637 16.6247 19.8239C16.4849 19.684 16.3896 19.5059 16.3511 19.3119C16.3125 19.1179 16.3323 18.9169 16.408 18.7342C16.4836 18.5515 16.6118 18.3953 16.7762 18.2855C16.9407 18.1756 17.134 18.1169 17.3317 18.1169C17.5969 18.1169 17.8513 18.2223 18.0388 18.4098C18.2263 18.5973 18.3316 18.8516 18.3316 19.1168ZM18.6649 12.9034C18.6369 13.0574 18.5557 13.1966 18.4353 13.2967C18.3149 13.3968 18.1632 13.4514 18.0067 13.4508H8.1011L7.13204 8.11805H19.5323L18.6649 12.9034Z" fill="#11162C"/>
</svg>
