<svg width="24" height="25" viewBox="0 0 24 25" fill="none" xmlns="http://www.w3.org/2000/svg">
<path d="M19.3333 6.45176H16V5.7851C16 5.25466 15.7893 4.74595 15.4142 4.37088C15.0391 3.99581 14.5304 3.7851 14 3.7851H10C9.46957 3.7851 8.96086 3.99581 8.58579 4.37088C8.21071 4.74595 8 5.25466 8 5.7851V6.45176H4.66667C4.48986 6.45176 4.32029 6.522 4.19526 6.64702C4.07024 6.77205 4 6.94162 4 7.11843C4 7.29524 4.07024 7.46481 4.19526 7.58983C4.32029 7.71486 4.48986 7.7851 4.66667 7.7851H5.33333V19.7851C5.33333 20.1387 5.47381 20.4779 5.72386 20.7279C5.97391 20.978 6.31304 21.1184 6.66667 21.1184H17.3333C17.687 21.1184 18.0261 20.978 18.2761 20.7279C18.5262 20.4779 18.6667 20.1387 18.6667 19.7851V7.7851H19.3333C19.5101 7.7851 19.6797 7.71486 19.8047 7.58983C19.9298 7.46481 20 7.29524 20 7.11843C20 6.94162 19.9298 6.77205 19.8047 6.64702C19.6797 6.522 19.5101 6.45176 19.3333 6.45176ZM9.33333 5.7851C9.33333 5.60828 9.40357 5.43872 9.5286 5.31369C9.65362 5.18867 9.82319 5.11843 10 5.11843H14C14.1768 5.11843 14.3464 5.18867 14.4714 5.31369C14.5964 5.43872 14.6667 5.60828 14.6667 5.7851V6.45176H9.33333V5.7851ZM17.3333 19.7851H6.66667V7.7851H17.3333V19.7851ZM10.6667 11.1184V16.4518C10.6667 16.6286 10.5964 16.7981 10.4714 16.9232C10.3464 17.0482 10.1768 17.1184 10 17.1184C9.82319 17.1184 9.65362 17.0482 9.5286 16.9232C9.40357 16.7981 9.33333 16.6286 9.33333 16.4518V11.1184C9.33333 10.9416 9.40357 10.772 9.5286 10.647C9.65362 10.522 9.82319 10.4518 10 10.4518C10.1768 10.4518 10.3464 10.522 10.4714 10.647C10.5964 10.772 10.6667 10.9416 10.6667 11.1184ZM14.6667 11.1184V16.4518C14.6667 16.6286 14.5964 16.7981 14.4714 16.9232C14.3464 17.0482 14.1768 17.1184 14 17.1184C13.8232 17.1184 13.6536 17.0482 13.5286 16.9232C13.4036 16.7981 13.3333 16.6286 13.3333 16.4518V11.1184C13.3333 10.9416 13.4036 10.772 13.5286 10.647C13.6536 10.522 13.8232 10.4518 14 10.4518C14.1768 10.4518 14.3464 10.522 14.4714 10.647C14.5964 10.772 14.6667 10.9416 14.6667 11.1184Z" fill="#E72106"/>
</svg>
