<svg width="24" height="25" viewBox="0 0 24 25" fill="none" xmlns="http://www.w3.org/2000/svg">
<path d="M12 3.45178C10.22 3.45178 8.47991 3.97962 6.99987 4.96856C5.51983 5.95749 4.36628 7.3631 3.68509 9.00763C3.0039 10.6522 2.82567 12.4618 3.17294 14.2076C3.5202 15.9534 4.37737 17.5571 5.63604 18.8157C6.89471 20.0744 8.49836 20.9316 10.2442 21.2788C11.99 21.6261 13.7996 21.4479 15.4442 20.7667C17.0887 20.0855 18.4943 18.932 19.4832 17.4519C20.4722 15.9719 21 14.2318 21 12.4518C20.9975 10.0656 20.0485 7.77788 18.3612 6.0906C16.6739 4.40332 14.3862 3.4543 12 3.45178ZM19.5834 11.7595H16.1365C16.0145 9.29659 15.2478 6.95919 13.9627 5.09601C15.4678 5.50009 16.8131 6.35519 17.8179 7.54639C18.8227 8.73759 19.4388 10.2078 19.5834 11.7595ZM12 20.0576C10.3791 18.3035 9.39606 15.8173 9.25068 13.1441H14.7493C14.6039 15.8155 13.6209 18.3035 12 20.0576ZM9.25068 11.7595C9.39606 9.08803 10.3757 6.60005 12 4.84592C13.6209 6.60005 14.6039 9.0863 14.7493 11.7595H9.25068ZM10.0373 5.09601C8.75221 6.95919 7.98548 9.29659 7.86346 11.7595H4.41664C4.56123 10.2078 5.17732 8.73759 6.1821 7.54639C7.18689 6.35519 8.53222 5.50009 10.0373 5.09601ZM4.41664 13.1441H7.86346C7.98548 15.607 8.75221 17.9444 10.0373 19.8075C8.53222 19.4035 7.18689 18.5484 6.1821 17.3572C5.17732 16.166 4.56123 14.6957 4.41664 13.1441ZM13.9627 19.8075C15.2478 17.9418 16.0145 15.6044 16.1365 13.1441H19.5834C19.4388 14.6957 18.8227 16.166 17.8179 17.3572C16.8131 18.5484 15.4678 19.4035 13.9627 19.8075Z" fill="#11162C"/>
</svg>
