<svg width="16" height="16" viewBox="0 0 16 16" fill="none" xmlns="http://www.w3.org/2000/svg">
<path d="M8 14.5C6.71442 14.5 5.45772 14.1188 4.3888 13.4046C3.31988 12.6903 2.48676 11.6752 1.99479 10.4874C1.50282 9.29972 1.37409 7.99279 1.6249 6.73191C1.8757 5.47104 2.49477 4.31285 3.40381 3.40381C4.31285 2.49476 5.47104 1.8757 6.73192 1.6249C7.99279 1.37409 9.29973 1.50281 10.4874 1.99478C11.6752 2.48675 12.6903 3.31987 13.4046 4.38879C14.1188 5.45771 14.5 6.71442 14.5 8C14.4982 9.72335 13.8128 11.3756 12.5942 12.5942C11.3756 13.8128 9.72335 14.4982 8 14.5ZM8 2.5C6.91221 2.5 5.84884 2.82257 4.94437 3.42692C4.0399 4.03126 3.33495 4.89025 2.91867 5.89524C2.50238 6.90023 2.39347 8.0061 2.60568 9.073C2.8179 10.1399 3.34173 11.1199 4.11092 11.8891C4.8801 12.6583 5.86011 13.1821 6.92701 13.3943C7.9939 13.6065 9.09977 13.4976 10.1048 13.0813C11.1098 12.6651 11.9687 11.9601 12.5731 11.0556C13.1774 10.1512 13.5 9.0878 13.5 8C13.4983 6.54182 12.9184 5.14383 11.8873 4.11274C10.8562 3.08165 9.45819 2.50165 8 2.5ZM7.5 7.5V11C7.5 11.1326 7.55268 11.2598 7.64645 11.3536C7.74022 11.4473 7.86739 11.5 8 11.5C8.13261 11.5 8.25979 11.4473 8.35356 11.3536C8.44732 11.2598 8.5 11.1326 8.5 11V7.5C8.5 7.36739 8.44732 7.24021 8.35356 7.14645C8.25979 7.05268 8.13261 7 8 7C7.86739 7 7.74022 7.05268 7.64645 7.14645C7.55268 7.24021 7.5 7.36739 7.5 7.5ZM8.75 5.25C8.75 5.10166 8.70602 4.95666 8.6236 4.83332C8.54119 4.70999 8.42406 4.61386 8.28701 4.55709C8.14997 4.50033 7.99917 4.48547 7.85368 4.51441C7.7082 4.54335 7.57456 4.61478 7.46967 4.71967C7.36478 4.82456 7.29335 4.9582 7.26441 5.10368C7.23548 5.24917 7.25033 5.39997 7.30709 5.53701C7.36386 5.67406 7.45999 5.79119 7.58333 5.8736C7.70666 5.95601 7.85167 6 8 6C8.19892 6 8.38968 5.92098 8.53033 5.78033C8.67099 5.63968 8.75 5.44891 8.75 5.25Z" fill="#707178"/>
</svg>
