<svg xmlns="http://www.w3.org/2000/svg" width="24" height="24" viewBox="0 0 24 24" fill="none">
  <path d="M17.0858 21.0858L17.6161 20.5555L17.6161 20.5555L17.0858 21.0858ZM9.45414 13.8226L9.63531 14.5504L9.45414 13.8226ZM9.95478 13.9548L10.4851 13.4245L9.95478 13.9548ZM6.59619 9.42462L6.06586 9.95495L6.59619 9.42462ZM9.42462 6.59619L8.89429 7.12652L9.42462 6.59619ZM13.25 8C13.25 8.66457 13.1269 9.29863 12.9029 9.88181L14.3031 10.4196C14.592 9.66751 14.75 8.85132 14.75 8H13.25ZM8 2.75C10.8995 2.75 13.25 5.10051 13.25 8H14.75C14.75 4.27208 11.7279 1.25 8 1.25V2.75ZM6.30851 3.02823C6.83829 2.84805 7.40692 2.75 8 2.75V1.25C7.24049 1.25 6.5088 1.37573 5.82552 1.60812L6.30851 3.02823ZM9.95495 6.06586L6.44308 2.554L5.38242 3.61466L8.89429 7.12652L9.95495 6.06586ZM7.83363 9.95495L9.95495 7.83363L8.89429 6.77297L6.77297 8.89429L7.83363 9.95495ZM2.554 6.44308L6.06586 9.95495L7.12652 8.89429L3.61466 5.38242L2.554 6.44308ZM2.75 8C2.75 7.40692 2.84805 6.83829 3.02823 6.30851L1.60812 5.82552C1.37573 6.5088 1.25 7.24049 1.25 8H2.75ZM8 13.25C5.10051 13.25 2.75 10.8995 2.75 8H1.25C1.25 11.7279 4.27208 14.75 8 14.75V13.25ZM9.27297 13.0948C8.86617 13.1961 8.43991 13.25 8 13.25V14.75C8.56301 14.75 9.11093 14.6809 9.63531 14.5504L9.27297 13.0948ZM17.6161 20.5555L10.4851 13.4245L9.42445 14.4851L16.5555 21.6161L17.6161 20.5555ZM19.3839 20.5555C18.8957 21.0436 18.1043 21.0436 17.6161 20.5555L16.5555 21.6161C17.6294 22.6901 19.3706 22.6901 20.4445 21.6161L19.3839 20.5555ZM20.0555 19.8839L19.3839 20.5555L20.4445 21.6161L21.1161 20.9445L20.0555 19.8839ZM20.0555 18.1161C20.5436 18.6043 20.5436 19.3957 20.0555 19.8839L21.1161 20.9445C22.1901 19.8706 22.1901 18.1294 21.1161 17.0555L20.0555 18.1161ZM13.1839 11.2446L20.0555 18.1161L21.1161 17.0555L14.2446 10.1839L13.1839 11.2446ZM9.63531 14.5504C9.5795 14.5643 9.49465 14.5553 9.42445 14.4851L10.4851 13.4245C10.1541 13.0934 9.68676 12.9918 9.27297 13.0948L9.63531 14.5504ZM6.77297 8.89429C6.8706 8.79666 7.02889 8.79666 7.12652 8.89429L6.06586 9.95495C6.55402 10.4431 7.34548 10.4431 7.83363 9.95495L6.77297 8.89429ZM8.89429 7.12652C8.79666 7.02889 8.79666 6.8706 8.89429 6.77297L9.95495 7.83363C10.4431 7.34548 10.4431 6.55402 9.95495 6.06586L8.89429 7.12652ZM5.82552 1.60812C4.90356 1.92168 4.79885 3.03108 5.38242 3.61466L6.44308 2.554C6.50107 2.61198 6.53005 2.70143 6.51253 2.79274C6.49358 2.89152 6.41815 2.99094 6.30851 3.02823L5.82552 1.60812ZM3.61466 5.38242C3.03108 4.79885 1.92168 4.90356 1.60812 5.82552L3.02823 6.30851C2.99094 6.41815 2.89152 6.49358 2.79274 6.51253C2.70143 6.53005 2.61198 6.50107 2.554 6.44308L3.61466 5.38242ZM12.9029 9.88181C12.7311 10.3292 12.8101 10.8707 13.1839 11.2446L14.2446 10.1839C14.3242 10.2635 14.3258 10.3608 14.3031 10.4196L12.9029 9.88181Z" fill="#444753"/>
</svg>