<svg xmlns="http://www.w3.org/2000/svg" width="24" height="24" viewBox="0 0 24 24" fill="none">
  <path d="M18.75 4.5H16.8103L15.5306 3.21938C15.3906 3.0805 15.2019 3.00178 15.0047 3H9C8.90148 2.99992 8.80391 3.01926 8.71286 3.0569C8.62182 3.09454 8.53908 3.14975 8.46937 3.21938L7.18969 4.5H5.25C4.85218 4.5 4.47064 4.65804 4.18934 4.93934C3.90804 5.22064 3.75 5.60218 3.75 6V20.25C3.75 20.6478 3.90804 21.0294 4.18934 21.3107C4.47064 21.592 4.85218 21.75 5.25 21.75H18.75C19.1478 21.75 19.5294 21.592 19.8107 21.3107C20.092 21.0294 20.25 20.6478 20.25 20.25V6C20.25 5.60218 20.092 5.22064 19.8107 4.93934C19.5294 4.65804 19.1478 4.5 18.75 4.5ZM15.1163 4.9275L15.75 5.56031V10.5L12.9909 8.115L15.1163 4.9275ZM8.25 5.56031L8.88375 4.9275L11.0091 8.115L8.25 10.5V5.56031ZM11.25 20.25H5.25V6H6.75V10.5C6.74824 10.7854 6.82873 11.0654 6.98185 11.3063C7.13497 11.5472 7.35424 11.7389 7.61344 11.8584C7.81277 11.9514 8.03003 11.9998 8.25 12C8.59993 11.9994 8.93846 11.8756 9.20625 11.6503C9.21012 11.6477 9.21359 11.6445 9.21656 11.6409L11.25 9.88875V20.25ZM10.4062 4.5H13.6031L12 6.89813L10.4062 4.5ZM18.75 20.25H12.75V9.88875L14.7797 11.6419C14.7827 11.6455 14.7861 11.6486 14.79 11.6512C15.0589 11.877 15.3989 12.0005 15.75 12C15.9714 11.9994 16.1901 11.9501 16.3903 11.8556C16.6484 11.7357 16.8666 11.5442 17.019 11.3039C17.1714 11.0636 17.2515 10.7846 17.25 10.5V6H18.75V20.25Z" fill="#444753"/>
</svg>