<svg xmlns="http://www.w3.org/2000/svg" width="22" height="22" viewBox="0 0 22 22" fill="none">
  <path d="M8.54726 9.15364C8.51712 9.10653 8.4756 9.06776 8.42654 9.04091C8.37748 9.01406 8.32245 8.99999 8.26652 8.99999H6.33333V8.77779C6.33333 8.42417 6.19286 8.08503 5.94281 7.83498C5.69276 7.58493 5.35362 7.44446 5 7.44446C4.64638 7.44446 4.30724 7.58493 4.05719 7.83498C3.80714 8.08503 3.66667 8.42417 3.66667 8.77779V8.99999H2.40015C2.34422 8.99999 2.28919 9.01406 2.24013 9.04091C2.19107 9.06776 2.14955 9.10653 2.11941 9.15364L1.05259 10.8203C1.01825 10.8739 1 10.9363 1 11V19C0.999997 19.0604 1.01642 19.1197 1.04751 19.1715L2.04751 20.8382C2.07712 20.8875 2.11902 20.9284 2.16911 20.9567C2.2192 20.9851 2.27577 21 2.33333 21H8.33333C8.39089 21 8.44747 20.9851 8.49756 20.9567C8.54765 20.9284 8.58954 20.8875 8.61916 20.8382L9.61916 19.1715C9.65025 19.1197 9.66667 19.0604 9.66667 19V11C9.66667 10.9363 9.64842 10.8739 9.61407 10.8203L8.54726 9.15364ZM4.33333 8.77779C4.33333 8.60098 4.40357 8.43141 4.5286 8.30639C4.65362 8.18136 4.82319 8.11112 5 8.11112C5.17681 8.11112 5.34638 8.18136 5.4714 8.30639C5.59643 8.43141 5.66667 8.60098 5.66667 8.77779V8.99999H4.33333V8.77779ZM2.58256 9.66666H8.08411L8.7242 10.6667H1.94246L2.58256 9.66666ZM1.66667 11.3333H6.40013C6.62401 12.4328 6.54076 13.5726 6.1595 14.6279C5.77825 15.6831 5.11373 16.6129 4.23883 17.3154L2.54973 18.6667H1.66667V11.3333ZM8.14461 20.3333H2.52205L1.92206 19.3333H8.74461L8.14461 20.3333ZM9 18.6667H3.61693L4.65529 17.836C5.6078 17.0711 6.33588 16.063 6.76251 14.9184C7.18914 13.7737 7.29846 12.535 7.07892 11.3333H9V18.6667Z" fill="#444753" stroke="#444753" stroke-width="0.3"/>
  <path d="M20.6666 1H20.3333C20.2449 0.999999 20.1601 1.03511 20.0976 1.09762L19.6666 1.5286L19.2357 1.09762C19.1732 1.03512 19.0884 1.00002 19 1.00002C18.9116 1.00002 18.8268 1.03512 18.7643 1.09762L18.3333 1.5286L17.9023 1.09762C17.8398 1.03512 17.755 1.00002 17.6666 1.00002C17.5782 1.00002 17.4935 1.03512 17.4309 1.09762L17 1.5286L16.569 1.09762C16.5065 1.03512 16.4217 1.00002 16.3333 1.00002C16.2449 1.00002 16.1601 1.03512 16.0976 1.09762L15.6666 1.5286L15.2357 1.09762C15.1732 1.03512 15.0884 1.00002 15 1.00002C14.9116 1.00002 14.8268 1.03512 14.7643 1.09762L14.3333 1.5286L13.9023 1.09762C13.8398 1.03512 13.755 1.00002 13.6666 1.00002C13.5782 1.00002 13.4935 1.03512 13.4309 1.09762L13 1.5286L12.569 1.09762C12.5065 1.03512 12.4217 1.00002 12.3333 1.00002C12.2449 1.00002 12.1601 1.03512 12.0976 1.09762L11.6666 1.5286L11.2357 1.09762C11.1732 1.03512 11.0884 1.00002 11 1.00002C10.9116 1.00002 10.8268 1.03512 10.7643 1.09762L10.3333 1.5286L9.90234 1.09762C9.83982 1.03512 9.75504 1.00002 9.66665 1.00002C9.57825 1.00002 9.49347 1.03512 9.43095 1.09762L8.99998 1.5286L8.56901 1.09762C8.50649 1.03512 8.42171 1.00002 8.33331 1.00002C8.24492 1.00002 8.16014 1.03512 8.09762 1.09762L7.66665 1.5286L7.23568 1.09762C7.17316 1.03511 7.08838 0.999999 6.99998 1H6.66665C6.57824 1 6.49346 1.03512 6.43095 1.09763C6.36843 1.16014 6.33331 1.24493 6.33331 1.33333V2.33333C6.33332 2.39914 6.3528 2.46347 6.3893 2.51823L6.99998 3.43425V8H7.66665V3.66667H19.6666V5.80935L16.51 7.66622C15.747 8.1173 15.1144 8.75903 14.6744 9.52841C14.2343 10.2978 14.0019 11.1684 14 12.0547C14.0019 12.7995 13.8149 13.5325 13.4565 14.1854C13.0982 14.8382 12.5801 15.3895 11.9508 15.7878L10.4877 16.7188L10.8456 17.2812L12.3087 16.3502C13.0328 15.892 13.629 15.2576 14.0413 14.5064C14.4537 13.7552 14.6688 12.9117 14.6666 12.0547C14.6683 11.2844 14.8703 10.5278 15.2527 9.8592C15.6352 9.19056 16.1849 8.63286 16.848 8.24084L19.6666 6.5828V18.3333H10.3333V19H19.8216L20.3333 19.7676V20.1953L19.9023 19.7643C19.8398 19.7018 19.755 19.6667 19.6666 19.6667C19.5782 19.6667 19.4935 19.7018 19.4309 19.7643L19 20.1953L18.569 19.7643C18.5065 19.7018 18.4217 19.6667 18.3333 19.6667C18.2449 19.6667 18.1601 19.7018 18.0976 19.7643L17.6666 20.1953L17.2357 19.7643C17.1732 19.7018 17.0884 19.6667 17 19.6667C16.9116 19.6667 16.8268 19.7018 16.7643 19.7643L16.3333 20.1953L15.9023 19.7643C15.8398 19.7018 15.755 19.6667 15.6666 19.6667C15.5782 19.6667 15.4935 19.7018 15.4309 19.7643L15 20.1953L14.569 19.7643C14.5065 19.7018 14.4217 19.6667 14.3333 19.6667C14.2449 19.6667 14.1601 19.7018 14.0976 19.7643L13.6666 20.1953L13.2357 19.7643C13.1732 19.7018 13.0884 19.6667 13 19.6667C12.9116 19.6667 12.8268 19.7018 12.7643 19.7643L12.3333 20.1953L11.9023 19.7643C11.8398 19.7018 11.755 19.6667 11.6666 19.6667C11.5782 19.6667 11.4935 19.7018 11.4309 19.7643L11 20.1953L10.569 19.7643L10.0976 20.2357L10.7643 20.9024C10.8268 20.9649 10.9116 21 11 21C11.0884 21 11.1732 20.9649 11.2357 20.9024L11.6666 20.4714L12.0976 20.9024C12.1601 20.9649 12.2449 21 12.3333 21C12.4217 21 12.5065 20.9649 12.569 20.9024L13 20.4714L13.4309 20.9024C13.4935 20.9649 13.5782 21 13.6666 21C13.755 21 13.8398 20.9649 13.9023 20.9024L14.3333 20.4714L14.7643 20.9024C14.8268 20.9649 14.9116 21 15 21C15.0884 21 15.1732 20.9649 15.2357 20.9024L15.6666 20.4714L16.0976 20.9024C16.1601 20.9649 16.2449 21 16.3333 21C16.4217 21 16.5065 20.9649 16.569 20.9024L17 20.4714L17.4309 20.9024C17.4935 20.9649 17.5782 21 17.6666 21C17.755 21 17.8398 20.9649 17.9023 20.9024L18.3333 20.4714L18.7643 20.9024C18.8268 20.9649 18.9116 21 19 21C19.0884 21 19.1732 20.9649 19.2357 20.9024L19.6666 20.4714L20.0976 20.9024C20.1601 20.9649 20.2449 21 20.3333 21H20.6666C20.7551 21 20.8398 20.9649 20.9023 20.9024C20.9649 20.8399 21 20.7551 21 20.6667V19.6667C21 19.6009 20.9805 19.5365 20.944 19.4818L20.3333 18.5658V3.43425L20.944 2.51823C20.9805 2.46347 21 2.39914 21 2.33333V1.33333C21 1.24493 20.9649 1.16014 20.9023 1.09763C20.8398 1.03512 20.7551 1 20.6666 1ZM20.3333 2.23242L19.8216 3H7.5117L6.99998 2.23242V1.80473L7.43095 2.23572C7.49347 2.29821 7.57825 2.33331 7.66665 2.33331C7.75504 2.33331 7.83982 2.29821 7.90234 2.23572L8.33331 1.80473L8.76428 2.23572C8.8268 2.29821 8.91158 2.33331 8.99998 2.33331C9.08838 2.33331 9.17316 2.29821 9.23568 2.23572L9.66665 1.80473L10.0976 2.23572C10.1601 2.29821 10.2449 2.33331 10.3333 2.33331C10.4217 2.33331 10.5065 2.29821 10.569 2.23572L11 1.80473L11.4309 2.23572C11.4935 2.29821 11.5782 2.33331 11.6666 2.33331C11.755 2.33331 11.8398 2.29821 11.9023 2.23572L12.3333 1.80473L12.7643 2.23572C12.8268 2.29821 12.9116 2.33331 13 2.33331C13.0884 2.33331 13.1732 2.29821 13.2357 2.23572L13.6666 1.80473L14.0976 2.23572C14.1601 2.29821 14.2449 2.33331 14.3333 2.33331C14.4217 2.33331 14.5065 2.29821 14.569 2.23572L15 1.80473L15.4309 2.23572C15.4935 2.29821 15.5782 2.33331 15.6666 2.33331C15.755 2.33331 15.8398 2.29821 15.9023 2.23572L16.3333 1.80473L16.7643 2.23572C16.8268 2.29821 16.9116 2.33331 17 2.33331C17.0884 2.33331 17.1732 2.29821 17.2357 2.23572L17.6666 1.80473L18.0976 2.23572C18.1601 2.29821 18.2449 2.33331 18.3333 2.33331C18.4217 2.33331 18.5065 2.29821 18.569 2.23572L19 1.80473L19.4309 2.23572C19.4935 2.29821 19.5782 2.33331 19.6666 2.33331C19.755 2.33331 19.8398 2.29821 19.9023 2.23572L20.3333 1.80473V2.23242Z" fill="#444753" stroke="#444753" stroke-width="0.3"/>
</svg>