<svg width="24" height="25" viewBox="0 0 24 25" fill="none" xmlns="http://www.w3.org/2000/svg">
<path d="M4 8.45188L10.5319 13.0242C11.0609 13.3945 11.3253 13.5796 11.613 13.6513C11.8671 13.7147 12.1329 13.7147 12.387 13.6513C12.6747 13.5796 12.9391 13.3945 13.4681 13.0242L20 8.45188M7.84 18.8519H16.16C17.5041 18.8519 18.1762 18.8519 18.6896 18.5903C19.1412 18.3602 19.5083 17.993 19.7384 17.5415C20 17.0281 20 16.356 20 15.0119V9.89188C20 8.54775 20 7.87569 19.7384 7.3623C19.5083 6.91071 19.1412 6.54356 18.6896 6.31346C18.1762 6.05188 17.5041 6.05188 16.16 6.05188H7.84C6.49587 6.05188 5.82381 6.05188 5.31042 6.31346C4.85883 6.54356 4.49168 6.91071 4.26158 7.3623C4 7.87569 4 8.54775 4 9.89188V15.0119C4 16.356 4 17.0281 4.26158 17.5415C4.49168 17.993 4.85883 18.3602 5.31042 18.5903C5.82381 18.8519 6.49587 18.8519 7.84 18.8519Z" stroke="#11162C" stroke-width="1.5" stroke-linecap="round" stroke-linejoin="round"/>
</svg>
