<svg width="24" height="24" viewBox="0 0 24 24" fill="none" xmlns="http://www.w3.org/2000/svg">
<path d="M20.9996 12.0001C20.9996 12.199 20.9206 12.3897 20.7799 12.5304C20.6393 12.671 20.4485 12.7501 20.2496 12.7501H5.55993L11.0302 18.2194C11.0999 18.2891 11.1552 18.3718 11.1929 18.4629C11.2306 18.5539 11.25 18.6515 11.25 18.7501C11.25 18.8486 11.2306 18.9462 11.1929 19.0372C11.1552 19.1283 11.0999 19.211 11.0302 19.2807C10.9606 19.3504 10.8778 19.4056 10.7868 19.4433C10.6957 19.4811 10.5982 19.5005 10.4996 19.5005C10.4011 19.5005 10.3035 19.4811 10.2124 19.4433C10.1214 19.4056 10.0387 19.3504 9.96899 19.2807L3.21899 12.5307C3.14926 12.461 3.09394 12.3783 3.05619 12.2873C3.01845 12.1962 2.99902 12.0986 2.99902 12.0001C2.99902 11.9015 3.01845 11.8039 3.05619 11.7128C3.09394 11.6218 3.14926 11.5391 3.21899 11.4694L9.96899 4.71943C10.1097 4.5787 10.3006 4.49963 10.4996 4.49963C10.6986 4.49963 10.8895 4.5787 11.0302 4.71943C11.171 4.86016 11.25 5.05103 11.25 5.25005C11.25 5.44907 11.171 5.63995 11.0302 5.78068L5.55993 11.2501H20.2496C20.4485 11.2501 20.6393 11.3291 20.7799 11.4697C20.9206 11.6104 20.9996 11.8011 20.9996 12.0001Z" fill="white"/>
</svg>
