<svg xmlns="http://www.w3.org/2000/svg" width="18" height="16" viewBox="0 0 18 16" fill="none">
  <path d="M18 2.41251C17.325 2.71251 16.6125 2.90001 15.8625 3.01251C16.6125 2.56251 17.2125 1.85001 17.475 0.987506C16.7625 1.40001 15.975 1.70001 15.1125 1.88751C14.4375 1.17501 13.4625 0.725006 12.4125 0.725006C10.3875 0.725006 8.7375 2.37501 8.7375 4.40001C8.7375 4.70001 8.775 4.96251 8.85 5.22501C5.8125 5.07501 3.075 3.61251 1.2375 1.36251C0.9375 1.92501 0.75 2.52501 0.75 3.20001C0.75 4.47501 1.3875 5.60001 2.4 6.27501C1.8 6.23751 1.2375 6.08751 0.7125 5.82501V5.86251C0.7125 7.66251 1.9875 9.16251 3.675 9.50001C3.375 9.57501 3.0375 9.61251 2.7 9.61251C2.475 9.61251 2.2125 9.57501 1.9875 9.53751C2.475 11 3.825 12.0875 5.4375 12.0875C4.1625 13.0625 2.5875 13.6625 0.8625 13.6625C0.5625 13.6625 0.2625 13.6625 0 13.625C1.65 14.675 3.5625 15.275 5.6625 15.275C12.45 15.275 16.1625 9.65001 16.1625 4.77501C16.1625 4.62501 16.1625 4.43751 16.1625 4.28751C16.875 3.80001 17.5125 3.16251 18 2.41251Z" fill="#11162C"/>
</svg>