<svg width="25" height="25" viewBox="0 0 25 25" fill="none" xmlns="http://www.w3.org/2000/svg">
<path d="M9.75178 11C9.75178 10.8011 9.82327 10.6103 9.95053 10.4697C10.0778 10.329 10.2504 10.25 10.4303 10.25H17.2161C17.396 10.25 17.5686 10.329 17.6959 10.4697C17.8231 10.6103 17.8946 10.8011 17.8946 11C17.8946 11.1989 17.8231 11.3897 17.6959 11.5303C17.5686 11.671 17.396 11.75 17.2161 11.75H10.4303C10.2504 11.75 10.0778 11.671 9.95053 11.5303C9.82327 11.3897 9.75178 11.1989 9.75178 11ZM10.4303 14.75H17.2161C17.396 14.75 17.5686 14.671 17.6959 14.5303C17.8231 14.3897 17.8946 14.1989 17.8946 14C17.8946 13.8011 17.8231 13.6103 17.6959 13.4697C17.5686 13.329 17.396 13.25 17.2161 13.25H10.4303C10.2504 13.25 10.0778 13.329 9.95053 13.4697C9.82327 13.6103 9.75178 13.8011 9.75178 14C9.75178 14.1989 9.82327 14.3897 9.95053 14.5303C10.0778 14.671 10.2504 14.75 10.4303 14.75ZM21.9661 6.5V17.75C21.9661 18.3467 21.7516 18.919 21.3698 19.341C20.988 19.7629 20.4703 20 19.9303 20H5.00178C4.46349 20 3.9471 19.7644 3.5656 19.3446C3.1841 18.9249 2.96853 18.3553 2.96606 17.7603V8.75C2.96606 8.55109 3.03756 8.36032 3.16481 8.21967C3.29207 8.07902 3.46467 8 3.64464 8C3.8246 8 3.9972 8.07902 4.12446 8.21967C4.25172 8.36032 4.32321 8.55109 4.32321 8.75V17.75C4.32321 17.9489 4.3947 18.1397 4.52196 18.2803C4.64921 18.421 4.82181 18.5 5.00178 18.5C5.18175 18.5 5.35434 18.421 5.4816 18.2803C5.60886 18.1397 5.68035 17.9489 5.68035 17.75V6.5C5.68035 6.10218 5.82333 5.72064 6.07785 5.43934C6.33236 5.15804 6.67756 5 7.03749 5H20.6089C20.9689 5 21.3141 5.15804 21.5686 5.43934C21.8231 5.72064 21.9661 6.10218 21.9661 6.5ZM20.6089 6.5H7.03749V17.75C7.03783 18.0055 6.99853 18.2592 6.92129 18.5H19.9303C20.1103 18.5 20.2829 18.421 20.4102 18.2803C20.5374 18.1397 20.6089 17.9489 20.6089 17.75V6.5Z" fill="#444753"/>
</svg>
