<svg xmlns="http://www.w3.org/2000/svg" width="22" height="22" viewBox="0 0 22 22" fill="none">
  <path d="M20.5977 13.7272V11.368C20.5977 10.734 20.1844 10.195 19.6133 10.0053V1.93838C19.6133 1.36547 19.2887 0.863687 18.7662 0.628832C18.2437 0.393976 17.653 0.484375 17.2246 0.864836L14.6587 3.14342C14.0018 3.72678 13.625 4.56527 13.625 5.4439V10.0053C13.0539 10.195 12.6406 10.734 12.6406 11.368V13.7272C12.1124 13.9394 11.7383 14.4566 11.7383 15.0598V20.8847C11.7383 21.2245 12.0137 21.5 12.3535 21.5H20.8848C21.2245 21.5 21.5 21.2245 21.5 20.8847V15.0598C21.5 14.4566 21.1259 13.9394 20.5977 13.7272ZM12.9688 15.0598C12.9688 14.9467 13.0607 14.8547 13.1738 14.8547H20.0645C20.1775 14.8547 20.2695 14.9467 20.2695 15.0598V20.2694H12.9688V15.0598ZM13.8711 11.368C13.8711 11.2549 13.9631 11.1629 14.0762 11.1629H19.1621C19.2752 11.1629 19.3672 11.2549 19.3672 11.368V13.6241H13.8711V11.368ZM15.4757 4.0636L18.0416 1.78502C18.1279 1.7084 18.2167 1.731 18.2619 1.75131C18.3071 1.77161 18.3829 1.82292 18.3829 1.93838V9.93224H14.8555V5.4439C14.8555 4.91673 15.0815 4.41363 15.4757 4.0636Z" fill="#444753"/>
  <path d="M7.18555 7.10187H3.57617C1.87997 7.10187 0.5 8.482 0.5 10.1784V20.8846C0.5 21.2244 0.775461 21.5 1.11523 21.5H9.64648C9.98626 21.5 10.2617 21.2244 10.2617 20.8846V10.1784C10.2617 8.482 8.88175 7.10187 7.18555 7.10187ZM9.03125 20.2694H1.73047V10.1784C1.73047 9.16052 2.55845 8.33246 3.57617 8.33246H7.18555C8.20327 8.33246 9.03125 9.16052 9.03125 10.1784V20.2694Z" fill="#444753"/>
</svg>