<svg xmlns="http://www.w3.org/2000/svg" width="24" height="24" viewBox="0 0 24 24" fill="none">
  <path d="M20.25 11.25C20.0427 11.2505 19.8358 11.2677 19.6313 11.3016L19.0857 9.88219C19.4676 9.79453 19.8582 9.75019 20.25 9.75C20.4489 9.75 20.6397 9.67098 20.7804 9.53033C20.921 9.38968 21 9.19891 21 9C21 8.80109 20.921 8.61032 20.7804 8.46967C20.6397 8.32902 20.4489 8.25 20.25 8.25H18.4575L17.2003 4.98094C17.1459 4.83936 17.0499 4.71761 16.9248 4.63175C16.7998 4.54589 16.6517 4.49995 16.5 4.5H13.5C13.3011 4.5 13.1103 4.57902 12.9697 4.71967C12.829 4.86032 12.75 5.05109 12.75 5.25C12.75 5.44891 12.829 5.63968 12.9697 5.78033C13.1103 5.92098 13.3011 6 13.5 6H15.9853L16.8507 8.25H14.25C12.5157 8.25 11.1094 8.65406 10.1841 9.41813C9.96634 9.59378 9.70381 9.70504 9.42615 9.73933C9.1485 9.77363 8.86678 9.72959 8.61284 9.61219C7.62097 9.16125 2.91847 7.24969 2.50409 7.0875L1.96878 6.8775C1.81961 6.81229 1.66168 6.76933 1.50003 6.75C1.32517 6.75042 1.15596 6.81192 1.02165 6.92388C0.88733 7.03583 0.796351 7.19119 0.764436 7.36311C0.732521 7.53502 0.761677 7.71269 0.846864 7.86539C0.932051 8.01809 1.06791 8.13622 1.23097 8.19937C1.27409 8.21625 5.65503 9.915 7.99315 10.9772C8.50314 11.2092 9.0677 11.2945 9.62346 11.2234C10.1792 11.1524 10.7042 10.9278 11.1394 10.575C11.595 10.2 12.5053 9.75 14.251 9.75H16.0153C14.9205 10.6289 14.1282 11.8284 13.7494 13.1803C13.6587 13.4908 13.4692 13.7632 13.2096 13.9562C12.9501 14.1492 12.6347 14.2524 12.3113 14.25H7.42503C7.23917 13.3395 6.72184 12.5304 5.97334 11.9796C5.22483 11.4288 4.29849 11.1756 3.37388 11.269C2.44928 11.3624 1.5923 11.7958 0.969076 12.4851C0.345853 13.1745 0.000793457 14.0707 0.000793457 15C0.000793457 15.9293 0.345853 16.8255 0.969076 17.5149C1.5923 18.2042 2.44928 18.6376 3.37388 18.731C4.29849 18.8244 5.22483 18.5712 5.97334 18.0204C6.72184 17.4696 7.23917 16.6605 7.42503 15.75H12.3113C12.9618 15.7514 13.595 15.5408 14.115 15.15C14.6351 14.7592 15.0136 14.2096 15.1932 13.5844C15.3802 12.9193 15.6967 12.2978 16.1245 11.7553C16.5523 11.2128 17.0829 10.7601 17.686 10.4231L18.2316 11.8416C17.4714 12.3281 16.9123 13.0725 16.6567 13.9381C16.4011 14.8037 16.4663 15.7324 16.8402 16.5538C17.2142 17.3752 17.8718 18.0342 18.6925 18.4098C19.5132 18.7854 20.4418 18.8525 21.3079 18.5986C22.174 18.3448 22.9195 17.7871 23.4075 17.0279C23.8956 16.2688 24.0935 15.359 23.9649 14.4657C23.8363 13.5724 23.3899 12.7554 22.7075 12.1647C22.0251 11.574 21.1526 11.2492 20.25 11.25ZM3.75003 15.75H5.87065C5.69373 16.2504 5.3456 16.6722 4.88779 16.9407C4.42998 17.2093 3.89197 17.3073 3.36885 17.2176C2.84573 17.1278 2.37118 16.856 2.02907 16.4502C1.68697 16.0444 1.49933 15.5308 1.49933 15C1.49933 14.4692 1.68697 13.9556 2.02907 13.5498C2.37118 13.144 2.84573 12.8722 3.36885 12.7824C3.89197 12.6927 4.42998 12.7907 4.88779 13.0593C5.3456 13.3278 5.69373 13.7496 5.87065 14.25H3.75003C3.55112 14.25 3.36035 14.329 3.2197 14.4697C3.07905 14.6103 3.00003 14.8011 3.00003 15C3.00003 15.1989 3.07905 15.3897 3.2197 15.5303C3.36035 15.671 3.55112 15.75 3.75003 15.75ZM20.25 17.25C19.7904 17.2494 19.342 17.1081 18.9652 16.8451C18.5883 16.5821 18.301 16.21 18.1419 15.7788C17.9828 15.3476 17.9596 14.8781 18.0754 14.4333C18.1911 13.9885 18.4403 13.5899 18.7894 13.2909L19.5497 15.2691C19.6211 15.4548 19.7633 15.6046 19.9451 15.6855C20.1269 15.7663 20.3334 15.7717 20.5191 15.7003C20.7048 15.629 20.8546 15.4867 20.9355 15.3049C21.0164 15.1231 21.0217 14.9167 20.9503 14.7309L20.1891 12.75H20.25C20.8468 12.75 21.4191 12.9871 21.841 13.409C22.263 13.831 22.5 14.4033 22.5 15C22.5 15.5967 22.263 16.169 21.841 16.591C21.4191 17.0129 20.8468 17.25 20.25 17.25Z" fill="#444753"/>
</svg>