<svg width="25" height="24" viewBox="0 0 25 24" fill="none" xmlns="http://www.w3.org/2000/svg">
<path d="M4.54348 5.61545L5.11747 5.13271L5.11747 5.13271L4.54348 5.61545ZM19.7788 5.61545L19.2048 5.13271L19.7788 5.61545ZM13.9328 17.15L14.3828 17.75L13.9328 17.15ZM14.2502 12.1892L14.8241 12.6719L14.2502 12.1892ZM10.0155 12.1218L10.5895 11.6391L10.0155 12.1218ZM10.5895 11.6391L5.11747 5.13271L3.96949 6.09819L9.44148 12.6046L10.5895 11.6391ZM5.11747 5.13271C4.9807 4.97009 5.09631 4.7218 5.3088 4.7218V3.2218C3.82138 3.2218 3.01211 4.95984 3.96949 6.09819L5.11747 5.13271ZM5.3088 4.7218H19.0135V3.2218H5.3088V4.7218ZM19.0135 4.7218C19.226 4.7218 19.3416 4.97009 19.2048 5.13271L20.3528 6.09819C21.3102 4.95984 20.5009 3.2218 19.0135 3.2218V4.7218ZM19.2048 5.13271L13.6762 11.7064L14.8241 12.6719L20.3528 6.09819L19.2048 5.13271ZM13.3828 12.511V16.75H14.8828V12.511H13.3828ZM13.4828 16.55L10.4828 18.8L11.3828 20L14.3828 17.75L13.4828 16.55ZM10.8828 19V12.4436H9.38281V19H10.8828ZM10.4828 18.8C10.6476 18.6764 10.8828 18.794 10.8828 19H9.38281C9.38281 20.03 10.5588 20.618 11.3828 20L10.4828 18.8ZM13.3828 16.75C13.3828 16.6713 13.4199 16.5972 13.4828 16.55L14.3828 17.75C14.6976 17.5139 14.8828 17.1434 14.8828 16.75H13.3828ZM13.6762 11.7064C13.4867 11.9317 13.3828 12.2166 13.3828 12.511H14.8828C14.8828 12.5699 14.862 12.6269 14.8241 12.6719L13.6762 11.7064ZM9.44148 12.6046C9.40359 12.5595 9.38281 12.5025 9.38281 12.4436H10.8828C10.8828 12.1493 10.7789 11.8644 10.5895 11.6391L9.44148 12.6046Z" fill="white"/>
</svg>
