<svg width="17" height="16" viewBox="0 0 17 16" fill="none" xmlns="http://www.w3.org/2000/svg">
<path d="M12.6328 4V10.5C12.6328 10.6326 12.5802 10.7598 12.4864 10.8536C12.3926 10.9473 12.2655 11 12.1328 11C12.0002 11 11.8731 10.9473 11.7793 10.8536C11.6855 10.7598 11.6328 10.6326 11.6328 10.5V5.20687L4.4866 12.3538C4.39278 12.4476 4.26553 12.5003 4.13285 12.5003C4.00016 12.5003 3.87292 12.4476 3.7791 12.3538C3.68528 12.2599 3.63257 12.1327 3.63257 12C3.63257 11.8673 3.68528 11.7401 3.7791 11.6462L10.926 4.5H5.63285C5.50024 4.5 5.37306 4.44732 5.27929 4.35355C5.18552 4.25979 5.13285 4.13261 5.13285 4C5.13285 3.86739 5.18552 3.74021 5.27929 3.64645C5.37306 3.55268 5.50024 3.5 5.63285 3.5H12.1328C12.2655 3.5 12.3926 3.55268 12.4864 3.64645C12.5802 3.74021 12.6328 3.86739 12.6328 4Z" fill="#11162C"/>
</svg>
