<svg width="24" height="25" viewBox="0 0 24 25" fill="none" xmlns="http://www.w3.org/2000/svg">
<path d="M18.8135 18.4132C18.8726 18.4723 18.9195 18.5425 18.9515 18.6198C18.9835 18.697 19 18.7798 19 18.8634C19 18.947 18.9835 19.0298 18.9515 19.107C18.9195 19.1843 18.8726 19.2545 18.8135 19.3136C18.7544 19.3727 18.6842 19.4196 18.607 19.4516C18.5297 19.4836 18.4469 19.5001 18.3633 19.5001C18.2797 19.5001 18.1969 19.4836 18.1197 19.4516C18.0424 19.4196 17.9722 19.3727 17.9131 19.3136L12 13.3997L6.08689 19.3136C5.96749 19.433 5.80554 19.5001 5.63669 19.5001C5.46783 19.5001 5.30588 19.433 5.18648 19.3136C5.06708 19.1942 5 19.0323 5 18.8634C5 18.6945 5.06708 18.5326 5.18648 18.4132L11.5498 12.0499C11.6089 11.9907 11.6791 11.9438 11.7563 11.9118C11.8336 11.8797 11.9164 11.8633 12 11.8633C12.0836 11.8633 12.1664 11.8797 12.2437 11.9118C12.3209 11.9438 12.3911 11.9907 12.4502 12.0499L18.8135 18.4132ZM6.08689 12.9503L12 7.03638L17.9131 12.9503C17.9722 13.0094 18.0424 13.0563 18.1197 13.0883C18.1969 13.1203 18.2797 13.1368 18.3633 13.1368C18.4469 13.1368 18.5297 13.1203 18.607 13.0883C18.6842 13.0563 18.7544 13.0094 18.8135 12.9503C18.8726 12.8912 18.9195 12.821 18.9515 12.7437C18.9835 12.6665 19 12.5837 19 12.5001C19 12.4165 18.9835 12.3337 18.9515 12.2564C18.9195 12.1792 18.8726 12.109 18.8135 12.0499L12.4502 5.68657C12.3911 5.6274 12.3209 5.58047 12.2437 5.54844C12.1664 5.51642 12.0836 5.49994 12 5.49994C11.9164 5.49994 11.8336 5.51642 11.7563 5.54844C11.6791 5.58047 11.6089 5.6274 11.5498 5.68657L5.18648 12.0499C5.06708 12.1693 5 12.3312 5 12.5001C5 12.6689 5.06708 12.8309 5.18648 12.9503C5.30588 13.0697 5.46783 13.1368 5.63669 13.1368C5.80554 13.1368 5.96749 13.0697 6.08689 12.9503Z" fill="#133DA8"/>
</svg>
