<svg width="25" height="24" viewBox="0 0 25 24" fill="none" xmlns="http://www.w3.org/2000/svg">
<path d="M19.3134 11.5497C19.3725 11.6088 19.4195 11.679 19.4515 11.7563C19.4835 11.8335 19.5 11.9163 19.5 11.9999C19.5 12.0836 19.4835 12.1664 19.4515 12.2436C19.4195 12.3209 19.3725 12.391 19.3134 12.4501L12.9501 18.8134C12.891 18.8726 12.8208 18.9195 12.7436 18.9515C12.6664 18.9835 12.5835 19 12.4999 19C12.4163 19 12.3335 18.9835 12.2563 18.9515C12.179 18.9195 12.1088 18.8726 12.0497 18.8134L5.68648 12.4501C5.56708 12.3307 5.5 12.1688 5.5 11.9999C5.5 11.8311 5.56708 11.6691 5.68648 11.5497C5.80588 11.4303 5.96782 11.3633 6.13668 11.3633C6.30554 11.3633 6.46748 11.4303 6.58688 11.5497L12.4999 17.4636L18.413 11.5497C18.4721 11.4906 18.5423 11.4436 18.6195 11.4116C18.6967 11.3796 18.7796 11.3631 18.8632 11.3631C18.9468 11.3631 19.0296 11.3796 19.1068 11.4116C19.1841 11.4436 19.2543 11.4906 19.3134 11.5497ZM12.0497 12.4501C12.1088 12.5093 12.179 12.5562 12.2563 12.5883C12.3335 12.6203 12.4163 12.6368 12.4999 12.6368C12.5835 12.6368 12.6664 12.6203 12.7436 12.5883C12.8208 12.5562 12.891 12.5093 12.9501 12.4501L19.3134 6.08689C19.4328 5.96749 19.4999 5.80555 19.4999 5.63669C19.4999 5.46784 19.4328 5.30589 19.3134 5.18649C19.194 5.06709 19.032 5.00002 18.8632 5.00002C18.6943 5.00002 18.5324 5.06709 18.413 5.18649L12.4999 11.1003L6.58688 5.18649C6.46748 5.06709 6.30554 5.00002 6.13668 5.00002C5.96782 5.00002 5.80588 5.06709 5.68648 5.18649C5.56708 5.30589 5.5 5.46784 5.5 5.63669C5.5 5.80555 5.56708 5.96749 5.68648 6.08689L12.0497 12.4501Z" fill="#133DA8"/>
</svg>
