<svg width="20" height="14" viewBox="0 0 20 14" fill="none" xmlns="http://www.w3.org/2000/svg">
<path d="M20 0.373047H0V13.6764H20V0.373047Z" fill="#B31942"/>
<path d="M0 1.90808H20H0ZM20 3.95475H0H20ZM0 6.00141H20H0ZM20 8.04808H0H20ZM0 10.0947H20H0ZM20 12.1414H0H20Z" fill="#000008"/>
<path d="M0 1.90808H20M20 3.95475H0M0 6.00141H20M20 8.04808H0M0 10.0947H20M20 12.1414H0" stroke="white" stroke-width="1.02333"/>
<path d="M10.1104 0.373047H0V7.53638H10.1104V0.373047Z" fill="#0A3161"/>
<path d="M0.84242 0.680054L1.08302 1.42054L0.453125 0.962896H1.23171L0.601822 1.42054L0.84242 0.680054Z" fill="white"/>
<path d="M0.84242 2.11279L1.08302 2.85328L0.453125 2.39564H1.23171L0.601822 2.85328L0.84242 2.11279Z" fill="white"/>
<path d="M0.84242 3.54541L1.08302 4.2859L0.453125 3.82825H1.23171L0.601822 4.2859L0.84242 3.54541Z" fill="white"/>
<path d="M0.84242 4.97803L1.08302 5.71852L0.453125 5.26087H1.23171L0.601822 5.71852L0.84242 4.97803Z" fill="white"/>
<path d="M0.84242 6.41077L1.08302 7.15126L0.453125 6.69361H1.23171L0.601822 7.15126L0.84242 6.41077Z" fill="white"/>
<path d="M1.68422 1.39636L1.92481 2.13685L1.29492 1.6792H2.07351L1.44362 2.13685L1.68422 1.39636Z" fill="white"/>
<path d="M1.68422 2.82898L1.92481 3.56947L1.29492 3.11182H2.07351L1.44362 3.56947L1.68422 2.82898Z" fill="white"/>
<path d="M1.68422 4.26172L1.92481 5.00221L1.29492 4.54456H2.07351L1.44362 5.00221L1.68422 4.26172Z" fill="white"/>
<path d="M1.68422 5.69434L1.92481 6.43483L1.29492 5.97718H2.07351L1.44362 6.43483L1.68422 5.69434Z" fill="white"/>
<path d="M2.52797 0.680054L2.76856 1.42054L2.13867 0.962896H2.91726L2.28737 1.42054L2.52797 0.680054Z" fill="white"/>
<path d="M2.52797 2.11279L2.76856 2.85328L2.13867 2.39564H2.91726L2.28737 2.85328L2.52797 2.11279Z" fill="white"/>
<path d="M2.52797 3.54541L2.76856 4.2859L2.13867 3.82825H2.91726L2.28737 4.2859L2.52797 3.54541Z" fill="white"/>
<path d="M2.52797 4.97815L2.76856 5.71864L2.13867 5.26099H2.91726L2.28737 5.71864L2.52797 4.97815Z" fill="white"/>
<path d="M2.52797 6.41077L2.76856 7.15126L2.13867 6.69361H2.91726L2.28737 7.15126L2.52797 6.41077Z" fill="white"/>
<path d="M3.36976 1.39648L3.61036 2.13697L2.98047 1.67933H3.75906L3.12917 2.13697L3.36976 1.39648Z" fill="white"/>
<path d="M3.36976 2.8291L3.61036 3.56959L2.98047 3.11194H3.75906L3.12917 3.56959L3.36976 2.8291Z" fill="white"/>
<path d="M3.36976 4.26184L3.61036 5.00233L2.98047 4.54468H3.75906L3.12917 5.00233L3.36976 4.26184Z" fill="white"/>
<path d="M3.36976 5.69446L3.61036 6.43495L2.98047 5.9773H3.75906L3.12917 6.43495L3.36976 5.69446Z" fill="white"/>
<path d="M4.21156 0.680054L4.45216 1.42054L3.82227 0.962896H4.60085L3.97096 1.42054L4.21156 0.680054Z" fill="white"/>
<path d="M4.21156 2.11279L4.45216 2.85328L3.82227 2.39564H4.60085L3.97096 2.85328L4.21156 2.11279Z" fill="white"/>
<path d="M4.21156 3.54541L4.45216 4.2859L3.82227 3.82825H4.60085L3.97096 4.2859L4.21156 3.54541Z" fill="white"/>
<path d="M4.21156 4.97815L4.45216 5.71864L3.82227 5.26099H4.60085L3.97096 5.71864L4.21156 4.97815Z" fill="white"/>
<path d="M4.21156 6.41077L4.45216 7.15126L3.82227 6.69361H4.60085L3.97096 7.15126L4.21156 6.41077Z" fill="white"/>
<path d="M5.05531 1.39636L5.29591 2.13685L4.66602 1.6792H5.4446L4.81471 2.13685L5.05531 1.39636Z" fill="white"/>
<path d="M5.05531 2.82898L5.29591 3.56947L4.66602 3.11182H5.4446L4.81471 3.56947L5.05531 2.82898Z" fill="white"/>
<path d="M5.05531 4.26172L5.29591 5.00221L4.66602 4.54456H5.4446L4.81471 5.00221L5.05531 4.26172Z" fill="white"/>
<path d="M5.05531 5.69434L5.29591 6.43483L4.66602 5.97718H5.4446L4.81471 6.43483L5.05531 5.69434Z" fill="white"/>
<path d="M5.89711 0.680054L6.1377 1.42054L5.50781 0.962896H6.2864L5.65651 1.42054L5.89711 0.680054Z" fill="white"/>
<path d="M5.89711 2.11279L6.1377 2.85328L5.50781 2.39564H6.2864L5.65651 2.85328L5.89711 2.11279Z" fill="white"/>
<path d="M5.89711 3.54541L6.1377 4.2859L5.50781 3.82825H6.2864L5.65651 4.2859L5.89711 3.54541Z" fill="white"/>
<path d="M5.89711 4.97803L6.1377 5.71852L5.50781 5.26087H6.2864L5.65651 5.71852L5.89711 4.97803Z" fill="white"/>
<path d="M5.89711 6.41077L6.1377 7.15126L5.50781 6.69361H6.2864L5.65651 7.15126L5.89711 6.41077Z" fill="white"/>
<path d="M6.7389 1.39636L6.9795 2.13685L6.34961 1.6792H7.1282L6.49831 2.13685L6.7389 1.39636Z" fill="white"/>
<path d="M6.7389 2.82898L6.9795 3.56947L6.34961 3.11182H7.1282L6.49831 3.56947L6.7389 2.82898Z" fill="white"/>
<path d="M6.7389 4.26172L6.9795 5.00221L6.34961 4.54456H7.1282L6.49831 5.00221L6.7389 4.26172Z" fill="white"/>
<path d="M6.7389 5.69434L6.9795 6.43483L6.34961 5.97718H7.1282L6.49831 6.43483L6.7389 5.69434Z" fill="white"/>
<path d="M7.58265 0.680054L7.82325 1.42054L7.19336 0.962896H7.97195L7.34206 1.42054L7.58265 0.680054Z" fill="white"/>
<path d="M7.58265 2.11267L7.82325 2.85316L7.19336 2.39551H7.97195L7.34206 2.85316L7.58265 2.11267Z" fill="white"/>
<path d="M7.58265 3.54541L7.82325 4.2859L7.19336 3.82825H7.97195L7.34206 4.2859L7.58265 3.54541Z" fill="white"/>
<path d="M7.58265 4.97803L7.82325 5.71852L7.19336 5.26087H7.97195L7.34206 5.71852L7.58265 4.97803Z" fill="white"/>
<path d="M7.58265 6.41064L7.82325 7.15114L7.19336 6.69349H7.97195L7.34206 7.15114L7.58265 6.41064Z" fill="white"/>
<path d="M8.42445 1.39636L8.66505 2.13685L8.03516 1.6792H8.81375L8.18385 2.13685L8.42445 1.39636Z" fill="white"/>
<path d="M8.42445 2.8291L8.66505 3.56959L8.03516 3.11194H8.81375L8.18385 3.56959L8.42445 2.8291Z" fill="white"/>
<path d="M8.42445 4.26172L8.66505 5.00221L8.03516 4.54456H8.81375L8.18385 5.00221L8.42445 4.26172Z" fill="white"/>
<path d="M8.42445 5.69434L8.66505 6.43483L8.03516 5.97718H8.81375L8.18385 6.43483L8.42445 5.69434Z" fill="white"/>
<path d="M9.2682 0.680054L9.5088 1.42054L8.87891 0.962896H9.6575L9.0276 1.42054L9.2682 0.680054Z" fill="white"/>
<path d="M9.2682 2.11279L9.5088 2.85328L8.87891 2.39564H9.6575L9.0276 2.85328L9.2682 2.11279Z" fill="white"/>
<path d="M9.2682 3.54541L9.5088 4.2859L8.87891 3.82825H9.6575L9.0276 4.2859L9.2682 3.54541Z" fill="white"/>
<path d="M9.2682 4.97803L9.5088 5.71852L8.87891 5.26087H9.6575L9.0276 5.71852L9.2682 4.97803Z" fill="white"/>
<path d="M9.2682 6.41077L9.5088 7.15126L8.87891 6.69361H9.6575L9.0276 7.15126L9.2682 6.41077Z" fill="white"/>
</svg>
