<svg width="24" height="25" viewBox="0 0 24 25" fill="none" xmlns="http://www.w3.org/2000/svg">
<path d="M4.39534 6.17277V18.7309C4.39534 18.9159 4.32184 19.0934 4.191 19.2242C4.06016 19.355 3.88271 19.4285 3.69767 19.4285C3.51264 19.4285 3.33518 19.355 3.20434 19.2242C3.0735 19.0934 3 18.9159 3 18.7309V6.17277C3 5.98774 3.0735 5.81028 3.20434 5.67944C3.33518 5.5486 3.51264 5.4751 3.69767 5.4751C3.88271 5.4751 4.06016 5.5486 4.191 5.67944C4.32184 5.81028 4.39534 5.98774 4.39534 6.17277ZM11.7209 10.9257L9.97672 11.4925V9.66113C9.97672 9.47609 9.90321 9.29864 9.77237 9.1678C9.64154 9.03696 9.46408 8.96346 9.27905 8.96346C9.09401 8.96346 8.91656 9.03696 8.78572 9.1678C8.65488 9.29864 8.58137 9.47609 8.58137 9.66113V11.4925L6.8372 10.9257C6.66118 10.8678 6.46941 10.8823 6.30406 10.9659C6.13871 11.0494 6.01334 11.1953 5.95551 11.3713C5.89769 11.5473 5.91216 11.7391 5.99573 11.9044C6.0793 12.0698 6.22514 12.1952 6.40115 12.253L8.14533 12.819L7.06917 14.3015C7.0123 14.3754 6.97082 14.46 6.94718 14.5502C6.92354 14.6404 6.91822 14.7344 6.93154 14.8267C6.94485 14.919 6.97653 15.0076 7.02471 15.0875C7.07288 15.1673 7.13657 15.2367 7.21202 15.2915C7.28746 15.3463 7.37312 15.3854 7.46394 15.4066C7.55476 15.4277 7.64889 15.4304 7.74078 15.4145C7.83267 15.3987 7.92044 15.3645 7.99891 15.3142C8.07738 15.2638 8.14496 15.1982 8.19766 15.1213L9.27381 13.6387L10.35 15.1213C10.4027 15.1982 10.4702 15.2638 10.5487 15.3142C10.6272 15.3645 10.715 15.3987 10.8068 15.4145C10.8987 15.4304 10.9929 15.4277 11.0837 15.4066C11.1745 15.3854 11.2602 15.3463 11.3356 15.2915C11.4111 15.2367 11.4747 15.1673 11.5229 15.0875C11.5711 15.0076 11.6028 14.919 11.6161 14.8267C11.6294 14.7344 11.6241 14.6404 11.6005 14.5502C11.5768 14.46 11.5353 14.3754 11.4785 14.3015L10.4023 12.819L12.1465 12.253C12.3147 12.1904 12.4524 12.0654 12.5308 11.9039C12.6092 11.7425 12.6224 11.557 12.5676 11.3861C12.5128 11.2151 12.3942 11.0719 12.2365 10.9862C12.0788 10.9004 11.8942 10.8787 11.7209 10.9257ZM20.965 11.3739C20.9079 11.1995 20.7843 11.0547 20.621 10.9707C20.4578 10.8868 20.2681 10.8706 20.093 10.9257L18.3488 11.4925V9.66113C18.3488 9.47609 18.2753 9.29864 18.1444 9.1678C18.0136 9.03696 17.8361 8.96346 17.6511 8.96346C17.4661 8.96346 17.2886 9.03696 17.1578 9.1678C17.0269 9.29864 16.9534 9.47609 16.9534 9.66113V11.4925L15.2093 10.9265C15.1221 10.8982 15.0302 10.8873 14.9389 10.8944C14.8475 10.9016 14.7584 10.9267 14.6768 10.9683C14.5951 11.0099 14.5224 11.0671 14.4629 11.1368C14.4033 11.2065 14.3581 11.2872 14.3298 11.3743C14.3014 11.4615 14.2905 11.5534 14.2977 11.6448C14.3048 11.7361 14.3299 11.8252 14.3715 11.9068C14.4131 11.9885 14.4704 12.0612 14.54 12.1207C14.6097 12.1803 14.6904 12.2255 14.7776 12.2539L16.5218 12.8198L15.4456 14.3024C15.3887 14.3763 15.3472 14.4608 15.3236 14.551C15.3 14.6412 15.2946 14.7353 15.308 14.8275C15.3213 14.9198 15.353 15.0085 15.4011 15.0884C15.4493 15.1682 15.513 15.2376 15.5884 15.2924C15.6639 15.3472 15.7495 15.3863 15.8404 15.4074C15.9312 15.4286 16.0253 15.4313 16.1172 15.4154C16.2091 15.3995 16.2969 15.3654 16.3753 15.315C16.4538 15.2647 16.5214 15.1991 16.5741 15.1222L17.6502 13.6396L18.7264 15.1222C18.7791 15.1991 18.8467 15.2647 18.9251 15.315C19.0036 15.3654 19.0914 15.3995 19.1833 15.4154C19.2752 15.4313 19.3693 15.4286 19.4601 15.4074C19.5509 15.3863 19.6366 15.3472 19.712 15.2924C19.7875 15.2376 19.8512 15.1682 19.8993 15.0884C19.9475 15.0085 19.9792 14.9198 19.9925 14.8275C20.0058 14.7353 20.0005 14.6412 19.9769 14.551C19.9532 14.4608 19.9118 14.3763 19.8549 14.3024L18.7787 12.8198L20.5229 12.2539C20.698 12.1955 20.8429 12.0701 20.9257 11.9052C21.0086 11.7403 21.0227 11.5492 20.965 11.3739Z" fill="#11162C"/>
</svg>
