<svg width="32" height="33" viewBox="0 0 32 33" fill="none" xmlns="http://www.w3.org/2000/svg">
<path d="M10.2449 19.8919C10.4829 20.1232 10.5911 20.4566 10.535 20.7839L10.171 22.9061C9.83835 24.8456 11.8757 26.3421 13.6326 25.4175L15.5326 24.4159C15.8274 24.2613 16.1786 24.2613 16.4727 24.4159L18.3661 25.4162C20.1138 26.3405 22.1604 24.8557 21.83 22.9101L21.4691 20.7825C21.414 20.4558 21.5222 20.1238 21.7591 19.8925L23.2921 18.3975C24.7055 17.019 23.925 14.6164 21.9715 14.3319L19.846 14.022C19.518 13.9736 19.2346 13.7679 19.0881 13.4701L18.1382 11.5442C17.2639 9.77055 14.7379 9.77339 13.8636 11.5408L12.9075 13.4722C12.7606 13.7686 12.4776 13.9737 12.1503 14.0214L10.0281 14.3313C8.07369 14.6159 7.29383 17.0217 8.71025 18.3989L10.2449 19.8919ZM10.2271 15.6932L12.3486 15.3833C13.1233 15.2711 13.7935 14.7851 14.1411 14.0826L15.0969 12.1513C15.4669 11.4041 16.5332 11.4033 16.9032 12.1533L17.853 14.0792C18.1995 14.783 18.8704 15.2704 19.6472 15.384L21.7727 15.6939C22.5996 15.8158 22.9298 16.828 22.3307 17.4121L20.798 18.9071C20.2374 19.4536 19.9806 20.2408 20.1117 21.0125L20.4727 23.1401C20.6126 23.9656 19.7503 24.588 19.0092 24.1995L17.1156 23.1992C16.4195 22.8309 15.5873 22.8302 14.8905 23.1979L12.9905 24.1994C12.2488 24.5904 11.3863 23.9625 11.5281 23.1386L11.8921 21.0165C12.0249 20.2414 11.7677 19.4522 11.2044 18.905L9.67008 17.412C9.06976 16.8274 9.39966 15.815 10.2271 15.6932Z" fill="#00821D" stroke="#00821D" stroke-width="0.3"/>
<path d="M15.9997 7.95587C16.4413 7.95587 16.7993 7.59829 16.7993 7.15634V6.00473C16.7993 5.56278 16.4413 5.2052 15.9997 5.2052C15.5582 5.2052 15.2002 5.56278 15.2002 6.00473V7.15634C15.2002 7.59829 15.5582 7.95587 15.9997 7.95587Z" fill="#00821D"/>
<path d="M9.28283 9.16989C9.50535 9.55616 9.99689 9.68092 10.3748 9.46269C10.7573 9.24177 10.8881 8.75293 10.6672 8.37036L10.0914 7.3733C9.87083 6.98993 9.38089 6.85877 8.99942 7.0805C8.61685 7.30142 8.48609 7.79026 8.70702 8.17283L9.28283 9.16989Z" fill="#00821D"/>
<path d="M4.16742 13.2979L5.16449 13.8733C5.54766 14.0939 6.0364 13.9621 6.25682 13.5805C6.47735 13.198 6.34619 12.7092 5.96402 12.4882L4.96696 11.9128C4.58318 11.6911 4.09485 11.8238 3.87462 12.2056C3.6541 12.5882 3.78525 13.0769 4.16742 13.2979Z" fill="#00821D"/>
<path d="M2.79953 20.0047H3.95074C4.3923 20.0047 4.75028 19.6471 4.75028 19.2052C4.75028 18.7632 4.3923 18.4056 3.95074 18.4056H2.79953C2.35798 18.4056 2 18.7632 2 19.2052C2 19.6471 2.35798 20.0047 2.79953 20.0047Z" fill="#00821D"/>
<path d="M27.249 19.2052C27.249 19.6471 27.607 20.0047 28.0486 20.0047H29.1998C29.6413 20.0047 29.9993 19.6471 29.9993 19.2052C29.9993 18.7632 29.6413 18.4056 29.1998 18.4056H28.0486C27.607 18.4056 27.249 18.7632 27.249 19.2052Z" fill="#00821D"/>
<path d="M26.8351 13.8733L27.8322 13.2979C28.2144 13.077 28.3455 12.5882 28.125 12.2056C27.9037 11.8238 27.4152 11.6911 27.0327 11.9128L26.0356 12.4882C25.6534 12.7091 25.5223 13.198 25.7428 13.5805C25.9642 13.9627 26.4524 14.0937 26.8351 13.8733Z" fill="#00821D"/>
<path d="M21.6245 9.46269C22.0029 9.68132 22.4942 9.55556 22.7164 9.16989L23.2922 8.17283C23.5131 7.79026 23.3824 7.30152 22.9998 7.0805C22.6172 6.85877 22.1281 6.98993 21.9079 7.3733L21.3321 8.37036C21.111 8.75303 21.2419 9.24177 21.6245 9.46269Z" fill="#00821D"/>
</svg>
