<svg width="24" height="25" viewBox="0 0 24 25" fill="none" xmlns="http://www.w3.org/2000/svg">
<path d="M9.375 11.1393L11.125 12.8893L15.0625 8.95178M19 20.3268V8.77678C19 7.30664 19 6.57158 18.7139 6.01006C18.4622 5.51613 18.0607 5.11456 17.5667 4.86289C17.0052 4.57678 16.2701 4.57678 14.8 4.57678H9.2C7.72986 4.57678 6.99479 4.57678 6.43327 4.86289C5.93935 5.11456 5.53778 5.51613 5.28611 6.01006C5 6.57158 5 7.30664 5 8.77678V20.3268L7.40625 18.5768L9.59375 20.3268L12 18.5768L14.4062 20.3268L16.5938 18.5768L19 20.3268Z" stroke="black" stroke-width="1.2" stroke-linecap="round" stroke-linejoin="round"/>
</svg>
