<svg width="25" height="25" viewBox="0 0 25 25" fill="none" xmlns="http://www.w3.org/2000/svg">
<path d="M9.59956 4.5H6.22178C5.72396 4.5 5.47505 4.5 5.2849 4.59688C5.11765 4.6821 4.98166 4.81809 4.89644 4.98534C4.79956 5.17549 4.79956 5.4244 4.79956 5.92222V9.3C4.79956 9.79782 4.79956 10.0467 4.89644 10.2369C4.98166 10.4041 5.11765 10.5401 5.2849 10.6253C5.47505 10.7222 5.72396 10.7222 6.22178 10.7222H9.59956C10.0974 10.7222 10.3463 10.7222 10.5364 10.6253C10.7037 10.5401 10.8397 10.4041 10.9249 10.2369C11.0218 10.0467 11.0218 9.79782 11.0218 9.3V5.92222C11.0218 5.4244 11.0218 5.17549 10.9249 4.98534C10.8397 4.81809 10.7037 4.6821 10.5364 4.59688C10.3463 4.5 10.0974 4.5 9.59956 4.5Z" stroke="#444753" stroke-width="1.5" stroke-linecap="round" stroke-linejoin="round"/>
<path d="M19.3773 4.5H15.9996C15.5017 4.5 15.2528 4.5 15.0627 4.59688C14.8954 4.6821 14.7594 4.81809 14.6742 4.98534C14.5773 5.17549 14.5773 5.4244 14.5773 5.92222V9.3C14.5773 9.79782 14.5773 10.0467 14.6742 10.2369C14.7594 10.4041 14.8954 10.5401 15.0627 10.6253C15.2528 10.7222 15.5017 10.7222 15.9996 10.7222H19.3773C19.8752 10.7222 20.1241 10.7222 20.3142 10.6253C20.4815 10.5401 20.6175 10.4041 20.7027 10.2369C20.7996 10.0467 20.7996 9.79782 20.7996 9.3V5.92222C20.7996 5.4244 20.7996 5.17549 20.7027 4.98534C20.6175 4.81809 20.4815 4.6821 20.3142 4.59688C20.1241 4.5 19.8752 4.5 19.3773 4.5Z" stroke="#444753" stroke-width="1.5" stroke-linecap="round" stroke-linejoin="round"/>
<path d="M19.3773 14.2778H15.9996C15.5017 14.2778 15.2528 14.2778 15.0627 14.3747C14.8954 14.4599 14.7594 14.5959 14.6742 14.7631C14.5773 14.9533 14.5773 15.2022 14.5773 15.7V19.0778C14.5773 19.5756 14.5773 19.8245 14.6742 20.0147C14.7594 20.1819 14.8954 20.3179 15.0627 20.4031C15.2528 20.5 15.5017 20.5 15.9996 20.5H19.3773C19.8752 20.5 20.1241 20.5 20.3142 20.4031C20.4815 20.3179 20.6175 20.1819 20.7027 20.0147C20.7996 19.8245 20.7996 19.5756 20.7996 19.0778V15.7C20.7996 15.2022 20.7996 14.9533 20.7027 14.7631C20.6175 14.5959 20.4815 14.4599 20.3142 14.3747C20.1241 14.2778 19.8752 14.2778 19.3773 14.2778Z" stroke="#444753" stroke-width="1.5" stroke-linecap="round" stroke-linejoin="round"/>
<path d="M9.59956 14.2778H6.22178C5.72396 14.2778 5.47505 14.2778 5.2849 14.3747C5.11765 14.4599 4.98166 14.5959 4.89644 14.7631C4.79956 14.9533 4.79956 15.2022 4.79956 15.7V19.0778C4.79956 19.5756 4.79956 19.8245 4.89644 20.0147C4.98166 20.1819 5.11765 20.3179 5.2849 20.4031C5.47505 20.5 5.72396 20.5 6.22178 20.5H9.59956C10.0974 20.5 10.3463 20.5 10.5364 20.4031C10.7037 20.3179 10.8397 20.1819 10.9249 20.0147C11.0218 19.8245 11.0218 19.5756 11.0218 19.0778V15.7C11.0218 15.2022 11.0218 14.9533 10.9249 14.7631C10.8397 14.5959 10.7037 14.4599 10.5364 14.3747C10.3463 14.2778 10.0974 14.2778 9.59956 14.2778Z" stroke="#444753" stroke-width="1.5" stroke-linecap="round" stroke-linejoin="round"/>
</svg>
