<svg xmlns="http://www.w3.org/2000/svg" width="24" height="24" viewBox="0 0 24 24" fill="none">
  <path d="M12 2.25C10.0716 2.25 8.18657 2.82183 6.58319 3.89317C4.97982 4.96451 3.73013 6.48726 2.99218 8.26884C2.25422 10.0504 2.06114 12.0108 2.43735 13.9021C2.81355 15.7934 3.74215 17.5307 5.10571 18.8943C6.46928 20.2579 8.20656 21.1865 10.0979 21.5627C11.9892 21.9389 13.9496 21.7458 15.7312 21.0078C17.5127 20.2699 19.0355 19.0202 20.1068 17.4168C21.1782 15.8134 21.75 13.9284 21.75 12C21.7473 9.41498 20.7192 6.93661 18.8913 5.10872C17.0634 3.28084 14.585 2.25273 12 2.25ZM19.6631 15.0544C18.3834 15.9317 16.8821 16.4303 15.3318 16.493C13.7815 16.5556 12.2449 16.1799 10.8984 15.4088L12.4331 12.75H20.2144C20.1436 13.5408 19.9579 14.3171 19.6631 15.0544ZM8.5425 4.51031C9.26277 4.17673 10.0276 3.94936 10.8131 3.83531C12.2127 4.50534 13.3949 5.55647 14.224 6.86802C15.0532 8.17956 15.4956 9.69835 15.5006 11.25H12.4331L8.5425 4.51031ZM20.2153 11.25H17.0034C16.9988 9.85918 16.6971 8.4854 16.1186 7.22058C15.5401 5.95577 14.6981 4.82909 13.6491 3.91594C15.3852 4.27298 16.9606 5.17856 18.1428 6.49908C19.3251 7.8196 20.0517 9.48513 20.2153 11.25ZM7.24407 5.26219L8.84907 8.04187C7.64687 8.74103 6.60792 9.68896 5.80177 10.8222C4.99562 11.9554 4.44088 13.2478 4.17469 14.6128C3.61313 12.9314 3.60844 11.1137 4.16133 9.42935C4.71422 7.74501 5.79523 6.28373 7.24407 5.26219ZM5.52188 17.1028C5.40336 15.5567 5.72299 14.0084 6.44413 12.6356C7.16527 11.2628 8.25871 10.121 9.59907 9.34125L11.1338 12L7.24407 18.7378C6.59468 18.2781 6.01469 17.7275 5.52188 17.1028ZM12 20.25C10.8059 20.2512 9.62593 19.9918 8.5425 19.4897L10.1484 16.7081C11.3538 17.3983 12.6924 17.8237 14.0751 17.9557C15.4577 18.0878 16.8527 17.9236 18.1669 17.4741C17.3941 18.3471 16.4448 19.046 15.3817 19.5245C14.3185 20.0031 13.1659 20.2504 12 20.25Z" fill="#444753"/>
</svg>