<svg xmlns="http://www.w3.org/2000/svg" width="24" height="24" viewBox="0 0 24 24" fill="none">
  <path d="M15.75 7.12503C15.75 7.34754 15.684 7.56504 15.5604 7.75005C15.4368 7.93505 15.2611 8.07925 15.0555 8.1644C14.8499 8.24955 14.6237 8.27182 14.4055 8.22842C14.1873 8.18501 13.9868 8.07786 13.8295 7.92053C13.6721 7.76319 13.565 7.56274 13.5216 7.34451C13.4782 7.12628 13.5005 6.90008 13.5856 6.69451C13.6708 6.48895 13.815 6.31325 14 6.18963C14.185 6.06601 14.4025 6.00003 14.625 6.00003C14.9233 6.00003 15.2095 6.11856 15.4205 6.32954C15.6315 6.54052 15.75 6.82666 15.75 7.12503ZM18.7069 15.6347C16.17 18.166 12.1987 19.23 6.86435 18.8175C7.01373 19.9325 7.2231 21.1066 7.49248 22.3397C7.53484 22.534 7.49829 22.7372 7.39088 22.9046C7.28346 23.0719 7.11396 23.1898 6.91966 23.2322C6.86674 23.2441 6.81266 23.2501 6.75841 23.25C6.58759 23.2497 6.422 23.1911 6.28903 23.0839C6.15606 22.9766 6.06368 22.8272 6.02717 22.6603C5.72029 21.2585 5.48935 19.926 5.33435 18.6628C4.07185 18.5072 2.74029 18.2763 1.33967 17.97C1.14622 17.9267 0.977811 17.8085 0.87126 17.6413C0.764709 17.4741 0.728684 17.2715 0.77106 17.0779C0.813436 16.8842 0.930766 16.7152 1.0974 16.6078C1.26403 16.5004 1.46641 16.4633 1.66029 16.5047C2.89217 16.7735 4.06529 16.9828 5.17967 17.1328C4.7681 11.7994 5.83591 7.82909 8.36716 5.29316C12.4687 1.17941 18.9778 2.33441 20.2406 2.60816C20.5226 2.66961 20.781 2.81078 20.9851 3.01488C21.1892 3.21897 21.3304 3.47739 21.3919 3.75941C21.6656 5.02222 22.8215 11.5313 18.7069 15.6347ZM17.3006 14.895C15.2376 14.5834 13.3288 13.619 11.854 12.1432C10.3793 10.6674 9.41614 8.75789 9.10592 6.69472C7.08373 8.97753 6.28123 12.5316 6.6956 17.3016C11.4665 17.7188 15.0206 16.9163 17.3034 14.895H17.3006ZM19.9256 4.07722C18.4078 3.76342 16.8519 3.6756 15.3084 3.81659C13.4109 4.00409 11.8022 4.55066 10.5037 5.45347C10.5553 7.57067 11.4191 9.58696 12.9163 11.0848C14.4135 12.5827 16.4294 13.4475 18.5465 13.5C19.4484 12.2016 19.9987 10.5938 20.1834 8.69534C20.3238 7.15165 20.237 5.5957 19.9256 4.07722Z" fill="#133DA8"/>
</svg>