<svg width="25" height="24" viewBox="0 0 25 24" fill="none" xmlns="http://www.w3.org/2000/svg">
<path d="M18.1924 12C18.1924 12.1326 18.1397 12.2598 18.0459 12.3536C17.9522 12.4473 17.825 12.5 17.6924 12.5H12.6924V17.5C12.6924 17.6326 12.6397 17.7598 12.5459 17.8536C12.4522 17.9473 12.325 18 12.1924 18C12.0598 18 11.9326 17.9473 11.8388 17.8536C11.7451 17.7598 11.6924 17.6326 11.6924 17.5V12.5H6.69238C6.55977 12.5 6.4326 12.4473 6.33883 12.3536C6.24506 12.2598 6.19238 12.1326 6.19238 12C6.19238 11.8674 6.24506 11.7402 6.33883 11.6464C6.4326 11.5527 6.55977 11.5 6.69238 11.5H11.6924V6.5C11.6924 6.36739 11.7451 6.24021 11.8388 6.14645C11.9326 6.05268 12.0598 6 12.1924 6C12.325 6 12.4522 6.05268 12.5459 6.14645C12.6397 6.24021 12.6924 6.36739 12.6924 6.5V11.5H17.6924C17.825 11.5 17.9522 11.5527 18.0459 11.6464C18.1397 11.7402 18.1924 11.8674 18.1924 12Z" fill="#11162C"/>
</svg>
